<?xml version="1.0" encoding="UTF-8"?>
<svg width="314px" height="177px" viewBox="0 0 314 177" version="1.1" xmlns="http://www.w3.org/2000/svg" xmlns:xlink="http://www.w3.org/1999/xlink">
    <title>1D16E849-F677-442C-8091-0F208798AEAE</title>
    <defs>
        <polygon id="path-1" points="0 0 313.293878 0 313.293878 34.9875644 0 34.9875644"></polygon>
        <polygon id="path-3" points="0 0 35.7249392 0 35.7249392 12.4321428 0 12.4321428"></polygon>
    </defs>
    <g id="Registration-" stroke="none" stroke-width="1" fill="none" fill-rule="evenodd">
        <g id="Registration---Broker-Account---Success" transform="translate(-565.000000, -220.000000)">
            <g id="Group-2" transform="translate(414.000000, 220.000000)">
                <g id="Group-139" transform="translate(307.646939, 88.353696) scale(-1, 1) translate(-307.646939, -88.353696) translate(151.000000, 0.000000)">
                    <g id="Group-3" transform="translate(0.000000, 141.719828)">
                        <mask id="mask-2" fill="white">
                            <use xlink:href="#path-1"></use>
                        </mask>
                        <g id="Clip-2"></g>
                        <path d="M313.293878,17.4937075 C313.293878,27.1553375 243.16059,34.9876018 156.646911,34.9876018 C70.1332316,34.9876018 -5.60581957e-05,27.1553375 -5.60581957e-05,17.4937075 C-5.60581957e-05,7.83226426 70.1332316,0 156.646911,0 C243.16059,0 313.293878,7.83226426 313.293878,17.4937075" id="Fill-1" fill="#EAEAEA" opacity="0.381147112" mask="url(#mask-2)"></path>
                    </g>
                    <path d="M270.372971,97.8236072 C273.077592,97.8897559 273.861099,98.7685616 273.835125,99.828622 C273.809525,100.888683 272.983975,101.728247 270.279354,101.662472 C265.352586,101.542134 263.018323,99.5647748 263.018323,99.5647748 C263.018323,99.5647748 265.374449,97.7017741 270.372971,97.8236072" id="Fill-23" fill="#87B7BB"></path>
                    <path d="M265.824446,91.1163375 C267.639611,89.3329395 268.746386,89.3792809 269.445245,90.0906594 C270.144291,90.8022248 270.171012,91.9093741 268.355848,93.6927722 C265.049162,96.9415315 262.185335,97.2235042 262.185335,97.2235042 C262.185335,97.2235042 262.469737,94.4123726 265.824446,91.1163375" id="Fill-25" fill="#87B7BB"></path>
                    <path d="M241.031537,15.5955209 C241.031537,15.5955209 237.81062,9.40052967 229.660319,10.1767488 C221.509644,10.952968 222.480012,17.162908 218.598916,16.5806503 C214.71782,15.9985793 209.284099,16.5806503 208.119771,20.461746 C206.955442,24.3430286 201.715869,22.2083325 201.521908,25.5073574 C201.327573,28.8063822 207.537513,31.1350396 214.71782,28.2241244 C221.897754,25.3132091 225.390927,30.485512 235.481963,29.5487796 C245.572999,28.612234 246.823096,27.4479052 252.79591,28.0299762 C258.768911,28.612234 258.627084,24.5226017 255.91013,21.8056478 C253.193176,19.0886939 242.195866,19.3474959 241.031537,15.5955209" id="Fill-27" fill="#EFF3F3"></path>
                    <g id="Group-31" transform="translate(172.462318, 0.000000)">
                        <mask id="mask-4" fill="white">
                            <use xlink:href="#path-3"></use>
                        </mask>
                        <g id="Clip-30"></g>
                        <path d="M25.1217441,3.48790357 C25.1217441,3.48790357 23.0739382,-0.450558406 17.8922923,0.0427537174 C12.7104596,0.536439562 13.3274734,4.48443144 10.8599785,4.11426048 C8.39248359,3.74408953 4.93780384,4.11426048 4.1976488,6.5817554 C3.45749375,9.04925032 0.126142031,7.6920814 0.00281399973,9.78959223 C-0.120514031,11.8869162 3.82747784,13.3674132 8.39248359,11.5167452 C12.9571156,9.66607734 15.1779545,12.9544511 21.5934413,12.3589262 C28.0089281,11.7635882 28.8038333,11.0232463 32.6010286,11.3934172 C36.3985977,11.7635882 36.308344,9.16342218 34.5810041,7.43608231 C32.8536642,5.70874243 25.862086,5.87336667 25.1217441,3.48790357" id="Fill-29" fill="#EFF3F3" mask="url(#mask-4)"></path>
                    </g>
                    <path d="M115.663362,15.2947874 C115.663362,15.2947874 111.628106,8.30601208 104.246176,9.45427079 C96.864246,10.6025295 104.082112,13.7533738 94.403478,15.2947874 C84.7248436,16.8363877 82.592203,20.1172871 87.0215479,22.7419318 C91.450706,25.3665765 98.6687593,17.9846465 106.542693,21.5934862 C114.417001,25.2025129 124.947907,22.1196858 115.663362,15.2947874" id="Fill-32" fill="#EFF3F3"></path>
                    <path d="M79.1910588,41.548354 C77.373839,43.1921672 76.3109756,43.1035953 75.6668669,42.3912824 C75.0223845,41.6791565 75.0406969,40.6127428 76.8581036,38.9689296 C80.1683401,35.9744876 82.9349989,35.8169641 82.9349989,35.8169641 C82.9349989,35.8169641 82.5498791,38.5103736 79.1910588,41.548354" id="Fill-34" fill="#87B7BB"></path>
                    <path d="M89.7461257,97.7792652 L89.2853274,97.8336417 C89.2769186,97.7628215 88.3911991,90.620073 83.8970136,80.8201661 C79.7500151,71.7781659 71.5946688,58.5594565 56.2917156,46.9354159 L56.5721935,46.5659924 C71.9596076,58.254313 80.1584925,71.5501959 84.3271668,80.6460119 C88.8469523,90.5075829 89.7375301,97.7075107 89.7461257,97.7792652" id="Fill-36" fill="#1A2947"></path>
                    <path d="M72.4580584,61.9547519 L72.0249154,61.7891934 C78.0390255,46.0570213 69.1827649,30.3059763 69.0925112,30.1488265 L69.4950091,29.9180536 C69.5861971,30.077072 78.5523318,46.0134828 72.4580584,61.9547519" id="Fill-38" fill="#1A2947"></path>
                    <path d="M64.0914848,56.004679 C59.4788296,56.9612186 55.5142071,55.3747717 55.4686131,55.3560856 L55.6442621,54.9268667 C55.6947145,54.9476083 60.7745214,56.9739252 66.0424969,54.9522798 L66.2088029,55.3852359 C65.4963032,55.658613 64.7862327,55.8606094 64.0914848,56.004679" id="Fill-40" fill="#1A2947"></path>
                    <path d="M55.4633997,44.4663139 C58.3154539,46.1353533 58.7704595,47.303793 58.2855562,48.1327068 C57.8004659,48.9616207 56.5587769,49.1372697 53.7067227,47.4680435 C48.5112491,44.4278206 46.8786476,41.4572968 46.8786476,41.4572968 C46.8786476,41.4572968 50.1922476,41.3816183 55.4633997,44.4663139" id="Fill-42" fill="#87B7BB"></path>
                    <path d="M56.3821935,53.6354354 C59.6047924,54.366808 60.3909151,55.3437155 60.1782677,56.2802611 C59.9658071,57.2169935 58.8349265,57.7585157 55.6123277,57.0271431 C49.7419134,55.6948266 47.289741,53.3549575 47.289741,53.3549575 C47.289741,53.3549575 50.4261971,52.2836854 56.3821935,53.6354354" id="Fill-44" fill="#87B7BB"></path>
                    <path d="M67.2361814,47.8078122 C68.2678391,50.0305197 67.8685179,51.0193862 66.9973735,51.4237527 C66.1262291,51.8281191 65.1130707,51.4947597 64.081413,49.2720523 C62.2021554,45.2231556 62.8711166,42.5342308 62.8711166,42.5342308 C62.8711166,42.5342308 65.3294553,43.6998676 67.2361814,47.8078122" id="Fill-46" fill="#87B7BB"></path>
                    <path d="M70.0708388,27.8799644 C71.477339,30.8701086 71.1912553,32.0910561 70.3221664,32.4999072 C69.4530775,32.9085715 68.3302319,32.3506056 66.9235449,29.3602745 C64.3613116,23.9130996 64.6965396,20.5402649 64.6965396,20.5402649 C64.6965396,20.5402649 67.4712334,22.3533738 70.0708388,27.8799644" id="Fill-48" fill="#87B7BB"></path>
                    <path d="M34.2970582,114.278108 C35.2558402,113.741444 35.7882062,113.375571 35.8124981,113.358567 L35.4135506,112.787894 C35.3019948,112.866002 24.0789572,120.560176 10.2327696,117.513039 L10.0832811,118.193025 C21.2401701,120.648561 30.7252169,116.277891 34.2970582,114.278108" id="Fill-64" fill="#FFFFFF"></path>
                    <path d="M245.072212,154.269458 L85.7226795,152.440603 C82.3113515,152.401549 79.5665553,149.624987 79.5665553,146.213659 L79.5665553,48.9551179 C79.5665553,45.552946 82.2969632,42.7803076 85.6987614,42.7283604 L242.99264,40.3189807 C246.419664,40.2672187 249.244997,42.9937025 249.314323,46.4203532 L251.371281,147.915959 C251.441171,151.431929 248.588743,154.309583 245.072212,154.269458" id="Fill-68" fill="#1A2947"></path>
                    <path d="M239.826436,134.979858 L89.2333801,134.979858 C87.3886917,134.979858 85.8934328,133.484599 85.8934328,131.640097 L85.8934328,53.4561052 C85.8934328,51.6116037 87.3886917,50.1161579 89.2333801,50.1161579 L239.826436,50.1161579 C241.670937,50.1161579 243.166196,51.6116037 243.166196,53.4561052 L243.166196,131.640097 C243.166196,133.484599 241.670937,134.979858 239.826436,134.979858" id="Fill-70" fill="#EAEAEA"></path>
                    <polygon id="Fill-72" fill="#EFF3F3" points="83.3673197 140.175836 38.2090794 154.272603 291.150199 154.640158 251.213219 140.175836"></polygon>
                    <path d="M35.9891936,156.353876 L35.9891936,158.922089 C35.9891936,160.071656 36.9816105,161.003343 38.2057346,161.003343 L288.989735,161.003343 C291.315403,161.003343 293.232032,159.289644 293.345644,157.108606 L293.360593,156.822896 C293.422257,155.636144 292.415265,154.642046 291.150218,154.640177 L38.2090981,154.27262 C36.983666,154.271127 35.9891936,155.203375 35.9891936,156.353876" id="Fill-74" fill="#131F2D"></path>
                    <path d="M159.728168,45.9200524 C159.728168,44.9110049 160.546057,44.092929 161.555105,44.092929 C162.564339,44.092929 163.382415,44.9110049 163.382415,45.9200524 C163.382415,46.9291 162.564339,47.7471759 161.555105,47.7471759 C160.546057,47.7471759 159.728168,46.9291 159.728168,45.9200524" id="Fill-76" fill="#131F2D"></path>
                    <path d="M191.460545,127.570945 L98.2632343,127.570945 C95.7703263,127.570945 93.7494284,125.550234 93.7494284,123.057326 L93.7494284,62.0981488 C93.7494284,59.6052408 95.7703263,57.5845297 98.2632343,57.5845297 L191.460545,57.5845297 C193.953453,57.5845297 195.974351,59.6052408 195.974351,62.0981488 L195.974351,123.057326 C195.974351,125.550234 193.953453,127.570945 191.460545,127.570945" id="Fill-78" fill="#FFFFFF"></path>
                    <path d="M233.231021,127.570945 L203.88904,127.570945 C202.438814,127.570945 201.263274,126.395405 201.263274,124.945179 L201.263274,60.2102956 C201.263274,58.7600701 202.438814,57.5845297 203.88904,57.5845297 L233.231021,57.5845297 C234.681246,57.5845297 235.856787,58.7600701 235.856787,60.2102956 L235.856787,124.945179 C235.856787,126.395405 234.681246,127.570945 233.231021,127.570945" id="Fill-80" fill="#FFFFFF"></path>
                    <polygon id="Path" fill="#78AE0C" transform="translate(202.543878, 96.032609) scale(-1, 1) translate(-202.543878, -96.032609) " points="228.293878 83.7173913 196.990835 115.065217 176.793878 94.9130435 183.511269 88.1956522 196.990835 101.630435 221.576487 77"></polygon>
                    <polygon id="Fill-82" fill="#364154" points="98.6181387 64.2787566 133.128872 64.2787566 133.128872 62.3937063 98.6181387 62.3937063"></polygon>
                    <polygon id="Fill-84" fill="#D5D6DA" points="98.6179519 79.3866272 136.04558 79.3866272 136.04558 77.5015769 98.6179519 77.5015769"></polygon>
                    <polygon id="Fill-85" fill="#364154" points="98.6179519 96.1224279 124.102381 96.1224279 124.102381 94.2373776 98.6179519 94.2373776"></polygon>
                    <polygon id="Fill-86" fill="#D5D6DA" points="126.460563 96.1224279 151.944806 96.1224279 151.944806 94.2373776 126.460563 94.2373776"></polygon>
                    <polygon id="Fill-87" fill="#364154" points="103.759983 114.241558 141.187611 114.241558 141.187611 112.356321 103.759983 112.356321"></polygon>
                    <polygon id="Fill-88" fill="#87B7BB" points="115.986463 118.829921 153.414091 118.829921 153.414091 116.944684 115.986463 116.944684"></polygon>
                    <polygon id="Fill-89" fill="#87B7BB" points="114.060864 100.686873 138.860449 100.686873 138.860449 98.8016359 114.060864 98.8016359"></polygon>
                    <polygon id="Fill-90" fill="#87B7BB" points="141.530127 100.686873 158.007313 100.686873 158.007313 98.8016359 141.530127 98.8016359"></polygon>
                    <polygon id="Fill-91" fill="#87B7BB" points="125.404426 104.642713 146.686734 104.642713 146.686734 102.757476 125.404426 102.757476"></polygon>
                    <polygon id="Fill-92" fill="#87B7BB" points="114.788125 84.5961153 132.89866 84.5961153 132.89866 82.7110651 114.788125 82.7110651"></polygon>
                    <polygon id="Fill-93" fill="#D5D6DA" points="121.744013 88.5609247 152.172962 88.5609247 152.172962 86.6758744 121.744013 86.6758744"></polygon>
                    <polygon id="Fill-94" fill="#87B7BB" points="135.745295 84.5961153 150.154681 84.5961153 150.154681 82.7110651 135.745295 82.7110651"></polygon>
                    <polygon id="Fill-95" fill="#364154" points="152.772225 84.5961153 167.378374 84.5961153 167.378374 82.7110651 152.772225 82.7110651"></polygon>
                    <polygon id="Fill-96" fill="#DAEBE8" points="112.598492 70.2125166 150.02612 70.2125166 150.02612 68.3274663 112.598492 68.3274663"></polygon>
                    <polygon id="Fill-97" fill="#D5D6DA" points="153.414278 70.2125166 179.245708 70.2125166 179.245708 68.3274663 153.414278 68.3274663"></polygon>
                    <polygon id="Fill-98" fill="#DAEBE8" points="163.382359 64.2787566 184.953179 64.2787566 184.953179 62.3937063 163.382359 62.3937063"></polygon>
                    <path d="M93.3003088,141.801374 C92.640317,141.801374 91.9926579,141.922086 91.3756441,142.15996 L73.3572319,149.108373 C72.8870905,149.289628 72.7447027,149.736972 72.8121594,150.099669 C72.8740102,150.431346 73.1341203,150.818335 73.6640571,150.818335 L259.100832,150.818335 C259.576018,150.818335 259.817442,150.472829 259.879667,150.177216 C259.943013,149.876557 259.859673,149.456494 259.417,149.261225 L243.383235,142.193408 C242.792942,141.933298 242.167706,141.801374 241.524345,141.801374 L93.3003088,141.801374 Z M259.100832,150.981464 L73.6640571,150.981464 C73.0745117,150.981464 72.730875,150.55374 72.6518329,150.129566 C72.5718566,149.700348 72.7409655,149.170971 73.2983708,148.955895 L91.3169698,142.007668 C91.9528566,141.762507 92.620136,141.638245 93.3003088,141.638245 L241.524345,141.638245 C242.190503,141.638245 242.837975,141.774653 243.448823,142.043919 L259.482962,149.111736 C259.980945,149.331485 260.121278,149.821994 260.039246,150.210851 C259.958522,150.594476 259.636935,150.981464 259.100832,150.981464 L259.100832,150.981464 Z" id="Fill-99" fill="#131F2D"></path>
                    <path d="M97.4247532,121.955633 C97.7969796,122.618988 101.53438,128.408118 100.752181,134.070556 L96.6842244,132.599776 L94.8255215,124.967079 L97.4247532,121.955633 Z" id="Fill-100" fill="#FFC5B5"></path>
                    <path d="M81.1813864,119.583026 C81.1813864,119.583026 83.6808345,115.100612 89.7644568,116.339872 C95.848079,117.579132 99.1682191,126.286839 97.5182396,143.53389 C97.5182396,143.53389 87.853246,139.691474 75.2861197,142.788876 C75.2861197,142.788876 77.3546671,126.085963 81.1813864,119.583026" id="Fill-101" fill="#714B4B"></path>
                    <path d="M76.5410758,117.771711 L80.8175687,122.040729 C80.8175687,122.040729 91.7804963,125.002471 94.8255775,124.967154 C97.870285,124.93165 99.0689961,122.70614 99.0689961,122.70614 C99.0689961,122.70614 96.4991016,118.636315 91.2991433,116.795551 C90.8105027,116.621957 90.2996257,116.468918 89.7648305,116.340171 C88.866965,116.124908 87.9541508,116.000459 87.0480635,115.946269 C81.6651686,115.626177 76.5410758,117.771711 76.5410758,117.771711" id="Fill-102" fill="#714B4B"></path>
                    <path d="M76.541244,117.771898 C75.8577077,118.514855 76.9117887,119.326391 78.092748,120.505295 C79.2735204,121.684199 80.4933468,122.371473 80.8173632,122.040729 C81.1411927,121.709799 80.4466316,120.486049 79.2658592,119.307332 C78.0850867,118.128428 76.854983,117.431064 76.541244,117.771898" id="Fill-103" fill="#131F2D"></path>
                    <path d="M80.2487275,122.058182 C80.2487275,122.058182 80.312447,121.205724 79.2406143,120.116887 C78.5953845,119.461379 77.7782428,119.032908 77.2303674,118.795782 C76.9046693,118.654702 76.5283319,118.81316 76.3990243,119.146332 L76.056135,120.030183 L77.6524856,121.058104 L80.2487275,122.058182 Z" id="Fill-104" fill="#F9AE9A"></path>
                    <path d="M87.8050733,137.870536 C87.8050733,137.870536 74.6125244,130.721247 69.8840156,138.520064 C66.3835549,144.293123 71.6453641,149.669665 91.1622118,149.123471 C91.1622118,149.123471 93.0911743,148.22 92.6212198,143.533909 C92.4351066,141.677074 87.8050733,137.870536 87.8050733,137.870536" id="Fill-105" fill="#87B7BB"></path>
                    <path d="M87.8050733,137.870536 C87.8050733,137.870536 105.375394,130.673037 108.852123,135.172642 C112.847764,140.34345 109.016,149.123471 90.4951193,145.98496 L88.2380295,143.533909 L87.8050733,137.870536 Z" id="Fill-106" fill="#87B7BB"></path>
                    <path d="M91.1837195,149.153537 L91.1409284,149.093555 C93.1896686,147.63137 92.6389902,143.876966 92.5885379,143.561172 L79.2709791,138.71438 L79.2963922,138.645055 L92.654126,143.506421 L92.6578632,143.527537 C92.6649639,143.568085 93.3507425,147.607452 91.1837195,149.153537" id="Fill-107" fill="#020202"></path>
                    <path d="M92.733523,144.823079 C92.733523,144.823079 95.9716313,144.954629 97.4928639,145.700577 C99.0137227,146.446524 98.2016263,148.267668 95.1130066,148.219084 C92.0247606,148.170314 92.2590839,147.710823 92.2590839,147.710823 C92.2590839,147.710823 92.8458263,146.112231 92.733523,144.823079" id="Fill-108" fill="#131F2D"></path>
                    <path d="M88.5886548,138.213238 C89.6608612,138.213238 90.5419092,137.942104 91.2562775,137.403197 C92.6054114,136.385741 92.8556178,134.763604 92.6599747,133.683736 L91.3693282,132.933117 C91.305235,132.579203 88.8145693,133.895076 88.8186803,133.893581 C88.8074686,133.897318 87.6300596,134.238152 83.5479018,132.151853 C80.7063119,130.699758 79.2742118,128.638872 79.1697567,125.851472 C79.0909015,123.750037 80.027634,122.569638 80.2486901,122.058201 C80.2780273,121.990183 78.8754512,120.583683 78.9154394,120.440735 L77.8639745,119.906126 C77.8979831,119.785788 76.8530584,119.373574 76.8676335,119.339004 L76.0562845,120.030202 C75.6558421,120.956657 74.8037576,123.083692 74.9136316,126.014228 C75.0279904,129.058374 76.285002,133.260123 81.624732,135.989036 C84.5365815,137.477194 86.8220742,138.213238 88.5886548,138.213238" id="Fill-109" fill="#FFC5B5"></path>
                    <path d="M89.4547165,138.384235 L100.840136,138.384235 C101.078383,138.384235 101.290097,138.232691 101.365215,138.008084 L103.731244,130.942322 C103.850461,130.58654 103.583624,130.219171 103.206166,130.219171 L92.2572526,130.219171 C91.7581478,130.219171 91.3152881,130.536461 91.1577645,131.006602 L88.9294513,137.661271 C88.810421,138.017053 89.0770712,138.384235 89.4547165,138.384235" id="Fill-110" fill="#131F2D"></path>
                    <path d="M90.1693091,138.384235 L101.554729,138.384235 C101.792976,138.384235 102.004689,138.232691 102.079807,138.008084 L104.445837,130.942322 C104.565054,130.58654 104.298217,130.219171 103.920758,130.219171 L92.9718451,130.219171 C92.4727403,130.219171 92.0298806,130.536461 91.872357,131.006602 L89.6440438,137.661271 C89.5250135,138.017053 89.7916637,138.384235 90.1693091,138.384235" id="Fill-111" fill="#131F2D"></path>
                    <path d="M98.1468201,134.070556 C98.1468201,133.802224 97.8373789,133.692911 97.5671784,133.692911 C97.2969779,133.692911 96.8559867,133.987403 96.8585912,134.36318 C96.8617794,134.768668 97.1786951,134.821736 97.4490824,134.821736 C97.7190961,134.821736 98.1468201,134.411951 98.1468201,134.070556" id="Fill-112" fill="#DAEBE8"></path>
                    <path d="M85.9837425,137.385875 L101.56026,137.385875 L101.56026,138.384272 L85.6582313,138.384272 C85.4723049,138.384272 85.3216953,138.233662 85.3216953,138.047923 C85.3216953,137.682236 85.6180563,137.385875 85.9837425,137.385875" id="Fill-113" fill="#131F2D"></path>
                    <path d="M90.9432111,133.83898 C90.9383528,133.83898 90.9333075,133.838233 90.928636,133.836925 C90.8981777,133.828703 90.8798654,133.797497 90.8880872,133.767225 C90.9110711,133.680522 91.4552093,131.640004 91.8225774,130.978891 C92.1981673,130.303203 92.6604605,130.16941 92.679894,130.164178 C92.7105392,130.155396 92.7413712,130.173708 92.7499668,130.203793 C92.7583755,130.234064 92.7406238,130.265457 92.7103523,130.274052 C92.7060545,130.27536 92.2727247,130.403734 91.9221741,131.034202 C91.5619068,131.683169 91.0039408,133.775447 90.998335,133.796376 C90.991608,133.821976 90.9684373,133.83898 90.9432111,133.83898" id="Fill-114" fill="#131F2D"></path>
                    <path d="M89.2961279,137.442999 C89.2647353,137.442999 89.2391354,137.417212 89.2391354,137.385819 C89.2391354,137.35424 89.2647353,137.328827 89.2961279,137.328827 C89.6545266,137.328827 89.7444066,137.184197 89.7453409,137.182702 L90.6284444,134.542548 C90.638348,134.51265 90.670488,134.496206 90.7005726,134.50667 C90.7304703,134.516574 90.7465403,134.548901 90.7364498,134.578799 L89.8490486,137.228856 C89.8408267,137.246048 89.7302052,137.442999 89.2961279,137.442999" id="Fill-115" fill="#131F2D"></path>
                    <path d="M77.6892411,130.340276 C77.6483186,130.340276 77.6120676,130.349619 77.5804882,130.367744 C77.3799867,130.484719 77.4128742,130.937109 77.6520558,131.35605 C77.8189224,131.647927 78.059412,131.872159 78.264585,131.927097 C78.3430665,131.948212 78.409402,131.94298 78.4620967,131.912148 C78.6625982,131.79536 78.6298976,131.342783 78.3905291,130.924215 C78.2234757,130.632152 77.9831729,130.407919 77.7779999,130.352982 C77.7464204,130.344387 77.7167096,130.340276 77.6892411,130.340276 M78.353157,132.08761 C78.3126082,132.08761 78.270004,132.08163 78.2262786,132.070045 C77.9811174,132.00427 77.7120381,131.758735 77.5236825,131.4293 C77.2351697,130.924776 77.2273216,130.4025 77.5061176,130.240119 C77.5930079,130.189479 77.7002659,130.179389 77.8163063,130.210221 C78.0612806,130.275809 78.3307337,130.521344 78.5187155,130.850779 C78.8072284,131.355303 78.8150765,131.877765 78.5364673,132.040147 C78.4822777,132.071727 78.42024,132.08761 78.353157,132.08761" id="Fill-116" fill="#EC865C"></path>
                    <path d="M86.9539791,115.935767 C87.7021692,115.913905 88.2694781,115.836918 88.6998182,115.330713 L90.0313872,113.764447 L90.4189362,113.30832 L92.6980756,110.627056 L91.5012331,113.762391 L90.7823802,115.644078 L90.5549708,116.239977 C90.400437,116.644343 90.6044888,116.832885 90.7483715,117.30583 C90.8064852,117.497362 91.1994531,118.676826 90.1760174,118.684158 C88.901254,118.693457 87.2886465,117.211465 86.9345456,115.931843 C86.9410857,115.933151 86.947439,115.935954 86.9539791,115.935767" id="Fill-117" fill="#FFC5B5"></path>
                    <path d="M89.6610855,112.758034 C89.6610855,112.758034 87.15136,110.346037 88.5991564,108.31019 C90.0469527,106.27453 90.4087149,111.577635 90.4087149,111.577635 L90.0039747,112.803441 L89.6610855,112.758034 Z" id="Fill-118" fill="#131F2D"></path>
                    <path d="M90.0439442,113.71022 C90.0392727,113.728158 90.0349749,113.746097 90.0314246,113.764409 C89.7985962,114.821854 90.7740088,115.647778 90.7740088,115.647778 L90.7824175,115.644227 L91.5012705,113.762354 C91.1957533,113.533823 90.7461666,113.256896 90.4189736,113.308469 C90.2479961,113.33519 90.1104666,113.451418 90.0439442,113.71022" id="Fill-119" fill="#131F2D"></path>
                    <path d="M95.3568784,112.400009 C95.9228794,110.514959 95.1266661,108.602813 93.5783387,108.128935 C92.0301982,107.654869 90.3164992,108.79883 89.7504983,110.683694 C89.1846842,112.568557 89.9807106,114.480889 91.529038,114.954955 C93.0771785,115.428833 94.7910644,114.284872 95.3568784,112.400009" id="Fill-120" fill="#FFC5B5"></path>
                    <path d="M90.2808088,110.411326 C90.2808088,110.411326 91.079825,110.992649 91.7497204,110.501392 C92.4196158,110.010323 92.8933076,109.544479 94.3934249,110.299396 C95.8931685,111.054313 97.5351131,110.715348 97.8383879,109.865319 C98.1416628,109.01529 97.4272945,108.364267 96.4849562,108.406498 C95.5428048,108.448728 96.6845234,107.932058 96.0290162,107.038678 C95.3736959,106.14511 93.7111967,107.065772 92.8871412,106.622726 C92.0630857,106.179679 89.127318,105.794933 88.5992498,108.310264 L90.2808088,110.411326 Z" id="Fill-121" fill="#131F2D"></path>
                    <path d="M89.6537979,110.915158 C89.8464512,111.21264 90.2160616,111.312797 90.4793483,111.13883 C90.742448,110.965237 90.7996274,110.583107 90.6071609,110.285624 C90.4143207,109.988142 90.0447104,109.887985 89.7816106,110.061952 C89.5183239,110.235733 89.4611446,110.617676 89.6537979,110.915158" id="Fill-122" fill="#FFC5B5"></path>
                    <path d="M96.1816814,109.571013 C95.5515872,109.571013 94.696326,108.802082 94.6572722,108.766391 L94.7308953,108.685294 C94.7409857,108.694263 95.7388216,109.591194 96.3160342,109.445443 C96.5376509,109.389198 96.6630344,109.284182 96.6432272,109.171318 C96.6241674,109.06406 96.4668307,108.963342 96.2435322,108.984831 C95.7558259,109.035097 95.4904838,108.868978 95.4792722,108.861877 L95.538507,108.769381 C95.5409362,108.770876 95.7855368,108.921299 96.2323206,108.875518 C96.5324188,108.845246 96.7233904,108.995296 96.7512326,109.152259 C96.7755245,109.289227 96.680973,109.465998 96.3429421,109.551767 C96.2913686,109.564847 96.2373658,109.571013 96.1816814,109.571013" id="Fill-123" fill="#FFFFFF"></path>
                    <path d="M93.5910079,107.465355 C93.383032,107.465355 93.1675817,107.434523 92.9624087,107.353986 C92.7013643,107.251587 92.4745155,107.131809 92.255328,107.015955 C91.8298462,106.791162 91.4617308,106.596827 91.0627833,106.674935 L91.041668,106.566742 C91.4791088,106.481347 91.8627337,106.684091 92.3067146,106.918975 C92.5232861,107.033147 92.7471452,107.151803 93.0025837,107.251774 C93.7649752,107.550377 94.6576085,107.118916 94.7134798,107.072014 L94.7938299,107.146758 C94.7461805,107.201882 94.1997999,107.465355 93.5910079,107.465355" id="Fill-124" fill="#FFFFFF"></path>
                    <path d="M89.4179514,108.296403 C89.4032238,108.363339 89.412116,108.383061 89.412116,108.38336 C89.4562989,108.399496 89.6916635,108.277876 89.9156349,108.029854 C90.0743045,107.854446 90.0876427,107.762111 90.0826409,107.748664 C89.9367538,107.649157 89.6046869,108.013718 89.4179514,108.296403 M89.4157284,108.554584 C89.3918307,108.554584 89.3696003,108.550699 89.3495929,108.542631 C89.2948505,108.520518 89.2103749,108.451192 89.2634501,108.236638 L89.2753989,108.208848 C89.3668215,108.067805 89.8397736,107.376333 90.1665607,107.598058 C90.2085206,107.626446 90.2963308,107.712507 90.20991,107.899867 C90.1020925,108.133246 89.6669321,108.554584 89.4157284,108.554584" id="Fill-125" fill="#FFFFFF"></path>
                    <path d="M93.116195,111.63487 C93.1341336,111.632254 93.1505773,111.62179 93.1599204,111.604599 C93.1758035,111.575823 93.1657131,111.539198 93.1369365,111.523128 C93.1201191,111.513785 92.7497612,111.256851 92.3528692,111.596564 C92.3278299,111.618053 92.323719,111.655238 92.3442736,111.681025 C92.3650152,111.706625 92.3984632,111.70457 92.4278003,111.689621 C92.7217321,111.54088 93.065182,111.620109 93.0791966,111.627957 C93.0907819,111.634497 93.1038622,111.636552 93.116195,111.63487" id="Fill-126" fill="#080435"></path>
                    <path d="M92.5676468,112.228489 C92.5452236,112.369756 92.6095036,112.497382 92.710969,112.513826 C92.8126212,112.530269 92.9129653,112.428991 92.9352018,112.287724 C92.957625,112.146644 92.8935318,112.018645 92.7918796,112.002388 C92.6904143,111.985944 92.5900701,112.087036 92.5676468,112.228489" id="Fill-127" fill="#080435"></path>
                    <path d="M95.1902735,112.387059 C95.2035406,112.39061 95.21905,112.385938 95.2317565,112.373232 C95.2528718,112.351556 95.2582908,112.313997 95.2437156,112.289705 C95.23512,112.275317 95.0622739,111.914302 94.663887,112.100976 C94.6386608,112.112748 94.6227777,112.146196 94.6283835,112.176841 C94.6341762,112.207673 94.6586549,112.216642 94.6846286,112.212158 C94.9439911,112.169927 95.1592546,112.356601 95.1663553,112.368373 C95.1723349,112.378464 95.1809305,112.38463 95.1902735,112.387059" id="Fill-128" fill="#080435"></path>
                    <path d="M94.4459328,112.72154 C94.3719359,112.843373 94.3831476,112.986321 94.4707852,113.040511 C94.5586097,113.094701 94.6895991,113.039764 94.7635959,112.917744 C94.8375927,112.795724 94.826381,112.652962 94.7387434,112.598772 C94.6511058,112.544583 94.5199296,112.59952 94.4459328,112.72154" id="Fill-129" fill="#080435"></path>
                    <path d="M92.7473881,114.223358 C92.3902974,114.223358 91.8512044,114.118342 91.5311121,113.552715 C91.5199005,113.532721 91.5270012,113.507308 91.5468084,113.495909 C91.5669894,113.484324 91.5924024,113.491611 91.6036141,113.511605 C92.0791744,114.351918 93.045244,114.116287 93.0861665,114.105635 C93.1084029,114.099843 93.1311999,114.113484 93.1368057,114.13572 C93.1425984,114.157956 93.1291444,114.180567 93.106908,114.186546 C93.1029839,114.18748 92.9562983,114.223358 92.7473881,114.223358" id="Fill-130" fill="#020202"></path>
                    <path d="M91.4464829,113.699456 C91.442372,113.699456 91.4377005,113.698896 91.4335895,113.697401 C91.41154,113.6903 91.3997678,113.666569 91.4070553,113.644893 C91.4414377,113.540812 91.5333731,113.445326 91.6804325,113.360678 C91.7000528,113.349093 91.7295768,113.35283 91.741349,113.371703 C91.7533081,113.39095 91.7527475,113.413186 91.7340615,113.425519 L91.7221024,113.432619 C91.5615891,113.524929 91.5049703,113.613127 91.4860974,113.671054 C91.4803047,113.688245 91.4640478,113.699456 91.4464829,113.699456" id="Fill-131" fill="#020202"></path>
                    <polygon id="Fill-132" fill="#131F2D" points="96.651748 124.640484 95.9797971 122.597537 96.1532038 122.540544 96.8253416 124.583305"></polygon>
                    <path d="M95.6112518,111.063339 C95.5776169,111.063339 95.5436083,111.065768 95.5086653,111.070439 C95.1063544,111.124255 94.6827413,111.473684 94.3757292,112.005303 C93.8721398,112.877008 93.839626,113.959492 94.3028536,114.418608 C94.4600034,114.574263 94.6605048,114.640225 94.8838033,114.610701 C95.286488,114.556885 95.7099143,114.207269 96.0171132,113.675837 C96.5205158,112.804132 96.5532164,111.721649 96.089802,111.262532 C95.9573178,111.131169 95.793441,111.063339 95.6112518,111.063339 M94.7799088,114.74169 C94.5653928,114.74169 94.3721789,114.661714 94.2155896,114.50662 C93.7149899,114.010318 93.7387212,112.860564 94.2682843,111.943452 C94.5947299,111.378759 95.0521648,111.006533 95.4922216,110.947672 C95.7547608,110.912168 95.9915133,110.991023 96.176879,111.174707 C96.6778525,111.670822 96.6541212,112.820576 96.1241843,113.737875 C95.7981125,114.302381 95.3406776,114.674607 94.9002471,114.733469 C94.8596983,114.738888 94.8193364,114.74169 94.7799088,114.74169" id="Fill-133" fill="#FFFFFF"></path>
                    <path d="M91.285353,110.595645 C90.8563209,111.507899 90.9749774,112.617664 91.5503214,113.074725 C92.1254785,113.5316 92.9398172,113.162363 93.3686624,112.250109 C93.7978813,111.337855 93.6794117,110.227903 93.1038809,109.771029 C92.5285369,109.314155 91.714385,109.683204 91.285353,110.595645" id="Fill-134" fill="#FFFFFF"></path>
                    <path d="M94.225867,112.016627 C93.7951532,112.933178 93.8534537,114.045186 94.3557351,114.500565 C94.8582034,114.955945 95.6144285,114.582037 96.0449554,113.665485 C96.4754824,112.748934 96.4173687,111.636739 95.9150873,111.18136 C95.4128058,110.726167 94.6563939,111.100075 94.225867,112.016627" id="Fill-135" fill="#FFFFFF"></path>
                    <path d="M92.6568915,109.462242 C92.5845764,109.462242 92.5111402,109.471024 92.4363959,109.488589 C92.0182018,109.587251 91.6190674,109.960412 91.368861,110.486238 C90.9293648,111.410638 91.0534402,112.538715 91.6456016,113.001009 C91.8711425,113.177031 92.1376057,113.235145 92.416215,113.169183 C92.8344091,113.070521 93.2335435,112.697547 93.4837499,112.171534 C93.9232461,111.247508 93.7991707,110.119431 93.2068224,109.656764 C93.0420113,109.528017 92.8547769,109.462242 92.6568915,109.462242 M92.1944114,113.319793 C91.969618,113.319793 91.7571575,113.245049 91.5695494,113.098737 C90.9340363,112.602622 90.7938908,111.406714 91.2571183,110.432983 C91.5273188,109.865113 91.946821,109.477004 92.4079931,109.368064 C92.7249088,109.29332 93.0270624,109.359281 93.2832484,109.559222 C93.9183878,110.055337 94.0585333,111.251246 93.5953057,112.22479 C93.3252921,112.792659 92.9057899,113.180769 92.4446178,113.289708 C92.3599699,113.309889 92.2764432,113.319793 92.1944114,113.319793" id="Fill-136" fill="#FFFFFF"></path>
                    <path d="M94.2992098,112.406941 C94.2646406,112.406941 94.2306319,112.391619 94.2078349,112.362095 C94.1968101,112.34808 93.9565073,112.050785 93.4347924,112.037705 C93.3708861,112.036397 93.3206205,111.983141 93.3221154,111.919422 C93.3236103,111.855702 93.3787342,111.808987 93.4403982,111.806745 C94.0790879,111.822441 94.3786256,112.204945 94.3909584,112.221202 C94.4298254,112.271841 94.4201086,112.344343 94.3694694,112.38321 C94.348541,112.39928 94.3238754,112.406941 94.2992098,112.406941" id="Fill-137" fill="#FFFFFF"></path>
                    <polygon id="Fill-138" fill="#020202" points="88.6924933 142.053561 88.6635299 141.985357 96.0521869 138.846285 96.0809635 138.914489"></polygon>
                </g>
            </g>
        </g>
    </g>
</svg>