<?xml version="1.0" encoding="UTF-8"?>
<svg width="12px" height="18px" viewBox="0 0 12 18" version="1.1" xmlns="http://www.w3.org/2000/svg" xmlns:xlink="http://www.w3.org/1999/xlink">
    <title>C244E7BC-5A7C-4D5D-BD18-AD036423F504</title>
    <g id="Registration-" stroke="none" stroke-width="1" fill="none" fill-rule="evenodd">
        <g id="Registration---Broker-Account-1" transform="translate(-767.000000, -384.000000)" fill="#1A2947" fill-rule="nonzero">
            <g id="Password" transform="translate(487.000000, 360.000000)">
                <g id="lock" transform="translate(280.000000, 24.000000)">
                    <path d="M6,13.5 C6.6636,13.5 7.2,12.996 7.2,12.375 C7.2,11.752875 6.6636,11.25 6,11.25 C5.3364,11.25 4.8,11.752875 4.8,12.375 C4.8,12.996 5.3364,13.5 6,13.5 Z M10.8,6.75 L10.8,4.5 C10.8,2.014875 8.6508,0 6,0 C3.3492,0 1.2,2.014875 1.2,4.5 L1.2,6.75 C0.5364,6.75 0,7.252875 0,7.875 L0,16.875 C0,17.496 0.5364,18 1.2,18 L10.8,18 C11.4636,18 12,17.496 12,16.875 L12,7.875 C12,7.252875 11.4636,6.75 10.8,6.75 Z M3.6,4.5 C3.6,3.258 4.6752,2.25 6,2.25 C7.3248,2.25 8.4,3.258 8.4,4.5 L8.4,6.75 L3.6,6.75 L3.6,4.5 Z M9.6,15.75 L2.4,15.75 L2.4,9 L9.6,9 L9.6,15.75 Z" id="Shape"></path>
                </g>
            </g>
        </g>
    </g>
</svg>