<?xml version="1.0" encoding="UTF-8"?>
<svg width="18px" height="15px" viewBox="0 0 18 15" version="1.1" xmlns="http://www.w3.org/2000/svg" xmlns:xlink="http://www.w3.org/1999/xlink">
    <title>50664D97-9735-4963-A7D1-413C63B10E24</title>
    <g id="Registration-" stroke="none" stroke-width="1" fill="none" fill-rule="evenodd">
        <g id="Registration---Broker-Account-1" transform="translate(-440.000000, -312.000000)" fill="#1A2947">
            <g id="Mail---Confirmation" transform="translate(166.000000, 285.000000)">
                <g id="mail-copy" transform="translate(274.000000, 27.000000)">
                    <path d="M0.00977,1 C0.00977,0.44772 0.45748,0 1.00977,0 L17,0 C17.5523,0 18,0.44772 18,1 L18,12.32421 C18,13.42881 17.1046,14.32421 16,14.32421 L2,14.32421 C0.89543,14.32421 0,13.42881 0,12.32421 L0,1.32422 C0,1.2766 0.00333,1.22976 0.00977,1.18391 L0.00977,1 Z M2,3.22376 L2,12.32421 L16,12.32421 L16,3.2241 L11.1215,8.10261 C9.9499,9.27421 8.0504,9.27421 6.87885,8.10261 L2,3.22376 Z M3.57232,1.96765 L14.428,1.96765 L9.7073,6.68841 C9.3168,7.07891 8.6836,7.07891 8.2931,6.68841 L3.57232,1.96765 Z" id="Shape"></path>
                </g>
            </g>
        </g>
    </g>
</svg>