<?xml version="1.0" encoding="UTF-8"?>
<svg width="18px" height="18px" viewBox="0 0 18 18" version="1.1" xmlns="http://www.w3.org/2000/svg" xmlns:xlink="http://www.w3.org/1999/xlink">
    <title>3BCE64CC-07A5-4DA4-B545-ACD0B0878F89</title>
    <g id="Registration-" stroke="none" stroke-width="1" fill="none" fill-rule="evenodd">
        <g id="Registration---Broker-Account-1" transform="translate(-763.000000, -459.000000)" fill="#1A2947" fill-rule="nonzero">
            <g id="Input-Not-Active-Copy-6" transform="translate(487.000000, 435.000000)">
                <g id="phone-15" transform="translate(276.000000, 24.000000)">
                    <path d="M8.1392357,4.96392535 L7.22329229,5.87906201 C6.71720979,6.38469875 6.71813883,7.20704526 7.22636689,7.71482568 L10.2783385,10.7641091 C10.7898561,11.2751762 11.6091905,11.2732649 12.1157205,10.767181 L13.0316639,9.85204436 C13.3702791,9.51372747 13.9179505,9.5123964 14.2570552,9.85120246 L17.6190792,13.2102652 C18.1261483,13.7168877 18.1284984,14.5359371 17.6169807,15.0470042 L15.7835539,16.8788162 C14.6023422,18.0589875 12.458011,18.3693657 11.0240283,17.5120089 C11.0240283,17.5120089 8.72712011,16.5464356 5.10468077,12.9271868 C1.4822414,9.30793806 0.480243409,6.97037673 0.480243409,6.97037673 C-0.355223758,5.52392734 -0.0717547736,3.39144568 1.10626928,2.21445921 L2.93969616,0.382647183 C3.44792421,-0.125133247 4.26779782,-0.129256508 4.77805438,0.380550595 L8.14007834,3.73961337 C8.47822813,4.07746528 8.47898731,4.62447298 8.1392357,4.96392535 Z M2.32937632,3.43648896 C1.70366655,4.06164761 1.59778486,5.31271601 1.9784064,6.10656358 C1.9784064,6.10656358 2.58936737,7.21430642 2.86590949,7.62197896 C3.68327437,8.82692089 4.81998315,10.1986805 6.32778781,11.7051571 C7.8353545,13.2113959 9.19983054,14.3400413 10.3916247,15.1451439 C10.7939796,15.41695 11.9122359,16.0290423 11.9122359,16.0290423 C12.6362619,16.407629 13.9235369,16.2931354 14.5604468,15.6567865 L16.090995,14.1275864 L13.6447809,11.6835269 L13.3388275,11.9892108 C12.1554195,13.1715765 10.240877,13.1707401 9.05523139,11.9861389 L6.00325985,8.93685546 C4.82050614,7.7551435 4.81761938,5.83855654 6.0001852,4.65703226 L6.30613858,4.35134841 L3.85992446,1.90728889 L2.32937632,3.43648896 Z" id="Combined-Shape"></path>
                </g>
            </g>
        </g>
    </g>
</svg>