<?xml version="1.0" encoding="UTF-8"?>
<svg width="74px" height="91px" viewBox="0 0 74 91" version="1.1" xmlns="http://www.w3.org/2000/svg" xmlns:xlink="http://www.w3.org/1999/xlink">
    <title>3850EA8E-C49F-4403-A9DB-203E97B1E342</title>
    <defs>
        <polygon id="path-1" points="0 -7.10542736e-15 6.1639 -7.10542736e-15 6.1639 10.122 0 10.122"></polygon>
        <polygon id="path-3" points="0 90.797 73.798 90.797 73.798 0 0 0"></polygon>
    </defs>
    <g id="Registration-" stroke="none" stroke-width="1" fill="none" fill-rule="evenodd">
        <g id="Registration---Broker-Account-1" transform="translate(-1201.000000, -47.000000)">
            <g id="Header" transform="translate(1018.000000, 47.000000)">
                <g id="Logo" transform="translate(183.000000, 0.000000)">
                    <g id="Group-3" transform="translate(0.000000, 80.674500)">
                        <mask id="mask-2" fill="white">
                            <use xlink:href="#path-1"></use>
                        </mask>
                        <g id="Clip-2"></g>
                        <path d="M0.7169,8.046 C0.9289,8.451 1.1999,8.767 1.5299,8.993 C1.8619,9.22 2.2169,9.334 2.5979,9.334 C3.1139,9.334 3.5329,9.171 3.8569,8.845 C4.1799,8.52 4.3409,8.101 4.3409,7.59 C4.3409,6.775 3.6199,6.07 2.1779,5.477 L2.1559,5.47 C1.3789,5.15 0.8279,4.792 0.5029,4.392 C0.1769,3.991 0.0149,3.485 0.0149,2.873 C0.0149,2.033 0.2939,1.345 0.8539,0.807 C1.4139,0.269 2.1369,-7.10542736e-15 3.0249,-7.10542736e-15 C3.6909,-7.10542736e-15 4.2729,0.15 4.7719,0.449 C5.2709,0.748 5.6409,1.172 5.8829,1.722 L5.2449,2.149 C5.0859,1.696 4.8479,1.347 4.5299,1.104 C4.2109,0.86 3.8319,0.738 3.3939,0.738 C2.9259,0.738 2.5419,0.889 2.2429,1.191 C1.9449,1.492 1.7939,1.886 1.7939,2.373 C1.7939,2.759 1.9179,3.088 2.1629,3.358 C2.4089,3.628 2.8699,3.907 3.5449,4.197 C4.6119,4.655 5.3149,5.094 5.6539,5.514 C5.9939,5.933 6.1639,6.471 6.1639,7.127 C6.1639,7.995 5.8639,8.711 5.2639,9.275 C4.6629,9.84 3.9029,10.122 2.9809,10.122 C2.3159,10.122 1.7409,9.994 1.2589,9.739 C0.7769,9.483 0.3579,9.088 -0.0001,8.552 L0.7169,8.046 Z" id="Fill-1" fill="#1A2947" mask="url(#mask-2)"></path>
                    </g>
                    <polygon id="Fill-4" fill="#1A2947" points="14.9826 85.992 14.9826 90.557 13.1886 90.557 13.1886 80.885 14.9826 80.885 14.9826 85.283 19.0266 85.283 19.0266 80.885 20.8066 80.885 20.8066 90.557 19.0266 90.557 19.0266 85.992"></polygon>
                    <mask id="mask-4" fill="white">
                        <use xlink:href="#path-3"></use>
                    </mask>
                    <g id="Clip-7"></g>
                    <polygon id="Fill-6" fill="#1A2947" mask="url(#mask-4)" points="28.541 90.558 30.32 90.558 30.32 80.885 28.541 80.885"></polygon>
                    <path d="M45.8586,86.036 L45.8586,89.299 C45.2906,89.796 44.6996,90.17 44.0866,90.421 C43.4736,90.671 42.8386,90.797 42.1826,90.797 C40.7416,90.797 39.5736,90.33 38.6816,89.397 C37.7896,88.464 37.3426,87.24 37.3426,85.725 C37.3426,84.283 37.7926,83.08 38.6926,82.119 C39.5916,81.156 40.7076,80.675 42.0396,80.675 C42.8486,80.675 43.5516,80.841 44.1476,81.174 C44.7436,81.507 45.2366,82.006 45.6276,82.672 L45.0486,83.077 C44.7496,82.489 44.3796,82.047 43.9376,81.753 C43.4966,81.459 42.9866,81.311 42.4076,81.311 C41.4376,81.311 40.6706,81.712 40.1036,82.513 C39.5366,83.313 39.2536,84.406 39.2536,85.79 C39.2536,87.121 39.5246,88.157 40.0676,88.898 C40.6106,89.638 41.3656,90.008 42.3356,90.008 C42.7116,90.008 43.0626,89.95 43.3876,89.834 C43.7126,89.719 43.9946,89.55 44.2316,89.328 L44.2316,86.036 L45.8586,86.036 Z" id="Fill-8" fill="#1A2947" mask="url(#mask-4)"></path>
                    <path d="M53.8087,87.3748 L56.6227,87.3748 L55.2127,83.8448 L53.8087,87.3748 Z M51.7037,90.5588 L55.6757,80.6888 L59.8067,90.5588 L57.8967,90.5588 L56.8907,87.9818 L53.5557,87.9818 L52.5567,90.5588 L51.7037,90.5588 Z" id="Fill-9" fill="#1A2947" mask="url(#mask-4)"></path>
                    <polygon id="Fill-10" fill="#1A2947" mask="url(#mask-4)" points="67.9738 85.992 67.9738 90.557 66.1798 90.557 66.1798 80.885 67.9738 80.885 67.9738 85.283 72.0178 85.283 72.0178 80.885 73.7978 80.885 73.7978 90.557 72.0178 90.557 72.0178 85.992"></polygon>
                    <polygon id="Fill-11" fill="#1A2947" mask="url(#mask-4)" points="39.9162 13.2567 39.9162 13.9367 39.9162 17.1327 39.9162 17.8127 39.9162 21.6887 43.1352 18.4697 43.1352 14.5937 43.1352 13.9127 43.1352 10.7167 43.1352 10.0367 43.1352 6.1597 39.9162 9.3797"></polygon>
                    <polygon id="Fill-12" fill="#1A2947" mask="url(#mask-4)" points="39.9162 3.2186 39.9162 7.7716 43.1352 4.5526 43.1352 -0.0004"></polygon>
                    <polygon id="Fill-13" fill="#1A2947" mask="url(#mask-4)" points="38.7794 18.9481 38.7794 18.2681 38.7794 15.0721 38.7794 14.3921 38.7794 10.5151 35.5574 13.7381 35.5574 17.6141 35.5574 18.2941 35.5574 21.4901 35.5574 22.1701 35.5574 26.0461 38.7794 22.8241"></polygon>
                    <polygon id="Fill-14" fill="#1A2947" mask="url(#mask-4)" points="38.7794 4.3543 35.5574 7.5773 35.5574 12.1293 38.7794 8.9083"></polygon>
                    <path d="M39.9162,37.243 L38.7792,38.379 L35.5582,41.598 L34.4222,42.734 L34.4222,39.537 L35.5582,38.398 L38.7792,35.176 L39.9162,34.04 L39.9162,37.243 Z M38.7792,30.623 L35.5582,33.845 L34.4222,34.981 L31.1992,38.203 L31.1992,42.083 L31.1992,42.759 L31.1992,45.956 L31.1992,46.633 L31.1992,50.512 L34.4222,47.29 L35.5582,46.154 L38.7792,42.932 L39.9162,41.796 L43.1352,38.577 L43.1352,34.701 L43.1352,34.024 L43.1352,30.821 L43.1352,30.144 L43.1352,26.268 L39.9162,29.487 L38.7792,30.623 Z" id="Fill-15" fill="#1A2947" mask="url(#mask-4)"></path>
                    <polygon id="Fill-16" fill="#1A2947" mask="url(#mask-4)" points="38.7794 24.449 35.5574 27.671 34.4224 28.806 31.1994 32.028 31.1994 36.582 34.4224 33.359 35.5574 32.223 38.7794 29.002 39.9164 27.866 43.1344 24.646 43.1344 20.094 39.9164 23.312"></polygon>
                    <polygon id="Fill-17" fill="#1A2947" mask="url(#mask-4)" points="34.422 23.3055 34.422 22.6255 34.422 19.4305 34.422 18.7495 34.422 14.8735 31.199 18.0955 31.199 21.9715 31.199 22.6525 31.199 25.8485 31.199 26.5285 31.199 30.4055 34.422 27.1825"></polygon>
                    <polygon id="Fill-18" fill="#1A2947" mask="url(#mask-4)" points="34.422 8.7127 31.199 11.9347 31.199 16.4877 34.422 13.2657"></polygon>
                    <path d="M39.9162,57.3133 L38.7792,58.4503 L35.5582,61.6683 L34.4222,62.8043 L34.4222,59.6083 L35.5582,58.4683 L38.7792,55.2483 L39.9162,54.1113 L39.9162,57.3133 Z M38.7792,50.6943 L35.5582,53.9173 L34.4222,55.0513 L31.1992,58.2743 L31.1992,62.1543 L31.1992,62.8313 L31.1992,66.0273 L31.1992,66.7043 L31.1992,70.5833 L34.4222,67.3613 L35.5582,66.2243 L38.7792,63.0023 L39.9162,61.8673 L43.1352,58.6483 L43.1352,54.7723 L43.1352,54.0943 L43.1352,50.8923 L43.1352,50.2153 L43.1352,46.3383 L39.9162,49.5583 L38.7792,50.6943 Z" id="Fill-19" fill="#1A2947" mask="url(#mask-4)"></path>
                    <polygon id="Fill-20" fill="#1A2947" mask="url(#mask-4)" points="38.7794 44.5194 35.5574 47.7414 34.4224 48.8774 31.1994 52.0994 31.1994 56.6524 34.4224 53.4304 35.5574 52.2944 38.7794 49.0724 39.9164 47.9364 43.1344 44.7174 43.1344 40.1654 39.9164 43.3834"></polygon>
                </g>
            </g>
        </g>
    </g>
</svg>