<?xml version="1.0" encoding="UTF-8"?>
<svg width="12px" height="18px" viewBox="0 0 12 18" version="1.1" xmlns="http://www.w3.org/2000/svg" xmlns:xlink="http://www.w3.org/1999/xlink">
    <title>D97235FD-9F56-4A95-AB9D-5D64217B37E6</title>
    <g id="Registration-" stroke="none" stroke-width="1" fill="none" fill-rule="evenodd">
        <g id="Registration---Broker-Account-1" transform="translate(-445.000000, -234.000000)" fill="#1A2947">
            <g id="User---LastName" transform="translate(166.000000, 210.000000)">
                <g id="user" transform="translate(279.000000, 24.000000)">
                    <path d="M10,4 C10,6.20914 8.2091,8 6,8 C3.79086,8 2,6.20914 2,4 C2,1.79086 3.79086,0 6,0 C8.2091,0 10,1.79086 10,4 Z M8,4 C8,5.10457 7.1046,6 6,6 C4.8954,6 4,5.10457 4,4 C4,2.89543 4.8954,2 6,2 C7.1046,2 8,2.89543 8,4 Z" id="Shape"></path>
                    <path d="M10,12 C10,11.4477 9.5523,11 9,11 L3,11 C2.44772,11 2,11.4477 2,12 L2,18 L0,18 L0,12 C0,10.3431 1.34315,9 3,9 L9,9 C10.6569,9 12,10.3431 12,12 L12,18 L10,18 L10,12 Z" id="Path" fill-rule="nonzero"></path>
                </g>
            </g>
        </g>
    </g>
</svg>