<?xml version="1.0" encoding="UTF-8"?>
<svg width="40px" height="27px" viewBox="0 0 40 27" version="1.1" xmlns="http://www.w3.org/2000/svg" xmlns:xlink="http://www.w3.org/1999/xlink">
    <title>C6DE35A9-190A-44A2-BD48-6F0C2B0900AA</title>
    <g id="Registration-" stroke="none" stroke-width="1" fill="none" fill-rule="evenodd">
        <g id="Registration---Broker-Account-1" transform="translate(-507.000000, -455.000000)" fill-rule="nonzero">
            <g id="Input-Not-Active-Copy-6" transform="translate(487.000000, 435.000000)">
                <g id="Flag_of_Saudi_Arabia" transform="translate(20.000000, 20.000000)">
                    <polygon id="_x32_1461584" fill="#006C35" points="40 26.3333333 40 0 0 0 0 26.3333333"></polygon>
                    <g id="g4699" transform="translate(8.000000, 5.000000)" fill="#FFFFFF">
                        <g id="g4695">
                            <g id="g4623" transform="translate(14.039932, 0.000000)">
                                <path d="M8.8440136,0.587558605 C9.12712173,0.385585334 9.39092703,0.159130455 9.70620653,0 C9.61612667,0.361103726 9.3458871,0.636521822 9.06921325,0.869097103 C8.92765919,0.979264341 8.99200194,1.18123761 8.97269912,1.33424767 C8.89548781,1.31588646 8.82471078,1.29752525 8.74749947,1.27304364 C8.8182765,2.19110396 8.92122491,3.10304388 8.96626484,4.0211042 C8.97269912,4.12515104 8.97913339,4.23531828 9.06921325,4.3026427 C9.49387544,4.68210763 9.93140617,5.05545216 10.2402514,5.53896393 C10.3625026,5.7286964 10.4268454,5.94291047 10.4911881,6.15712455 C10.5683995,5.80214122 10.5619652,5.43491709 10.5233595,5.07381337 C10.3689369,3.67836168 10.2273828,2.27678959 10.1051316,0.875217505 C10.0922631,0.703846245 10.066526,0.526354583 10.0858288,0.354983324 C10.0986973,0.195852868 10.2595542,0.0612040213 10.4204111,0.0734448256 C10.5169252,0.153010053 10.5683995,0.263177292 10.6198737,0.37334453 C10.7485592,0.66100343 10.8643761,0.973143939 10.8322048,1.29752525 C10.7549934,1.27304364 10.6777821,1.24244163 10.5941366,1.21183962 C10.7099535,2.16050195 10.8257705,3.10916428 10.8965475,4.06394702 C10.9287189,4.70658924 11.025233,5.35535187 10.8901132,5.99187369 C10.7742963,6.57943229 10.4847539,7.1731113 9.97001183,7.50973342 C9.53891536,7.79127192 9.03704187,7.95040237 8.53516838,8.05444921 C8.32927156,8.09729202 8.11694047,8.11565323 7.91747792,8.06056961 C8.12980902,7.94428197 8.36787721,7.85859634 8.59307686,7.76066991 C8.92122491,7.61990066 9.23650441,7.4668906 9.53248109,7.27103773 C9.80915494,7.08742567 10.0986973,6.90381361 10.3045942,6.63451591 C10.0472231,5.94903087 9.62256095,5.30638865 9.01773904,4.8840809 C9.03704187,5.55732514 9.06921325,6.24281018 8.96626484,6.90993401 C8.94696201,7.06906446 8.87618498,7.20983371 8.7668023,7.32000095 C8.69602527,7.03846245 8.68959099,6.74468315 8.65741961,6.45702425 C8.59951113,5.83274323 8.54803693,5.20234181 8.502997,4.5780608 C8.502997,4.44953235 8.41935142,4.35160592 8.32283728,4.27816109 C7.94321503,3.95990018 7.58932987,3.60491686 7.22257616,3.27441514 C7.23544472,3.66000048 7.2933532,4.03946541 7.3190903,4.41893034 C7.36413023,4.93304412 7.3705645,5.4471579 7.42203871,5.96127168 C7.45421008,6.3223754 7.46064436,6.70184034 7.32552457,7.04458286 C7.19040479,7.36896417 6.88799384,7.64438226 6.5276744,7.66886387 C6.33464614,7.68722508 6.14161787,7.66886387 5.95502388,7.63826186 C5.75556134,7.60765985 5.60113872,7.4546498 5.51105887,7.28327854 C5.40167618,7.07518487 5.3437677,6.84260959 5.25368784,6.62839551 C5.08639668,6.66511792 4.91267124,6.70184034 4.79042,6.83036878 C4.53304898,7.07518487 4.45583768,7.4485294 4.33358644,7.76679031 C4.26280941,7.95652277 4.17916383,8.16461645 3.99256984,8.26866328 C3.79954157,8.37883052 3.56147337,8.33598771 3.37487938,8.23194087 C3.09177126,8.07893082 2.91804582,7.78515151 2.83440024,7.48525181 C2.75075465,7.25267653 2.86657161,6.98337883 2.72501755,6.76304436 C2.62206914,6.56107109 2.67997762,6.3223754 2.73145183,6.11428173 C2.84083451,5.7409372 3.07246843,5.42267629 3.34914228,5.1533786 C2.98238857,4.83511769 2.61563487,4.51685677 2.24888116,4.19859586 C2.28105254,5.07993377 2.35182957,5.96127168 2.23601261,6.83648918 C2.21670978,7.01398084 2.15236703,7.1792317 2.02368152,7.30776015 C1.98507586,7.14250929 1.95933876,6.97113803 1.94647021,6.79976677 C1.85639035,5.83274323 1.77917904,4.8657197 1.71483629,3.89869616 C1.70840201,3.78852892 1.68909919,3.66612088 1.59901933,3.59267605 C1.22583135,3.23769273 0.865511916,2.8582278 0.530929587,2.46040166 C0.33790132,2.21558557 0.138438778,1.96464908 0.0354903692,1.67086978 C-0.00311528412,1.54846174 -0.0352866619,1.37709048 0.0805302981,1.28528445 C0.215650085,1.29752525 0.33790132,1.35872927 0.45371828,1.41993329 C0.666049374,1.54234134 0.865511916,1.70147179 1.03923736,1.88508386 C1.11644866,1.96464908 1.15505432,2.06869592 1.18722569,2.17274276 C1.07784301,2.17274276 0.9748946,2.16662236 0.865511916,2.16662236 C1.08427728,2.47876286 1.34164831,2.76642176 1.63762498,3.01123785 C1.61188788,2.19110396 1.52180802,1.36484968 1.48320237,0.54471579 C1.48320237,0.434548551 1.48320237,0.312140509 1.56041368,0.220334477 C1.63119071,0.140769249 1.74057339,0.110167238 1.83708752,0.0734448256 C2.01724724,0.336622117 2.14593275,0.63040142 2.22314406,0.942541929 C2.25531544,1.06494997 2.24888116,1.19347842 2.24244688,1.32200686 C2.16523558,1.30364565 2.08802427,1.27916405 2.01724724,1.25468244 C2.06872144,1.92180627 2.13949848,2.5828097 2.1845384,3.24993353 C2.19097268,3.34173956 2.19740696,3.439666 2.22314406,3.53147203 C2.26174971,3.59879645 2.31965819,3.64163927 2.3711324,3.69060249 C2.82796596,4.07618782 3.28479952,4.46177316 3.74806736,4.83511769 C4.02474121,4.596422 4.29498079,4.35160592 4.57165464,4.11903064 C4.63599739,4.06394702 4.70034015,4.0149838 4.75181435,3.95377978 C4.80328856,3.89869616 4.78398573,3.81913093 4.78398573,3.75180651 C4.69390587,2.95003383 4.62956312,2.14826115 4.55878608,1.34648847 C4.53948326,1.05270917 4.49444333,0.765050267 4.49444333,0.477391366 C4.48800905,0.306020107 4.62312884,0.134648847 4.79685428,0.128528445 C4.87406559,0.122408043 4.90623696,0.208093673 4.94484262,0.25705689 C5.07352813,0.483511769 5.17004226,0.728327854 5.22795074,0.985384743 C5.26012212,1.10779279 5.24725357,1.23632123 5.22151647,1.36484968 C5.15073944,1.33424767 5.07352813,1.29752525 5.0027511,1.26692324 C5.09926523,2.0197327 5.17647654,2.77254217 5.24725357,3.52535163 C5.44671611,3.37846198 5.62687583,3.20709072 5.81346982,3.04796026 C6.01936664,2.8704686 6.238132,2.69909734 6.43759455,2.50936487 C6.19952635,2.25230799 5.9485896,2.0136123 5.70408713,1.76267581 C5.54966452,1.60354536 5.36307053,1.45053531 5.29872777,1.22408043 C5.24725357,1.06494997 5.27942495,0.893578711 5.31159632,0.740568658 C5.60113872,0.789531875 5.85207547,0.960903135 6.08370939,1.13227439 C6.24456628,1.25468244 6.38612034,1.39545169 6.5276744,1.53622094 C6.51480585,1.21796002 6.4762002,0.899699114 6.4504631,0.581438203 C6.4504631,0.45903016 6.43759455,0.324381313 6.52124013,0.226454879 C6.59201716,0.146889651 6.70139984,0.116287641 6.7914797,0.0734448256 C6.97807369,0.318260911 7.09389065,0.612040213 7.17110196,0.905819516 C7.20970761,1.04046836 7.20970761,1.17511721 7.20327334,1.30976606 C7.12606203,1.29140485 7.04241645,1.27304364 6.96520514,1.25468244 C6.99094224,1.49949852 7.01667935,1.73819421 7.04885072,1.98301029 C7.35126168,1.75655541 7.62793552,1.49949852 7.93034648,1.27304364 C8.03329488,1.17511721 8.21988888,1.10167238 8.21988888,0.930301124 C8.22632315,0.74668906 8.1877175,0.556956594 8.2134546,0.37334453 C8.23275743,0.214214075 8.38718004,0.0856856299 8.54803693,0.0979264341 C8.70245954,0.244816085 8.76036802,0.428428149 8.8440136,0.587558605 L8.8440136,0.587558605 Z M7.27405037,2.35635482 C7.22257616,2.41143844 7.12606203,2.46040166 7.13249631,2.55220769 C7.17110196,2.63177292 7.24831327,2.69297694 7.31265602,2.76030136 C7.685844,3.09692348 8.03972916,3.4519068 8.43221997,3.75792691 C8.41935142,3.39682318 8.38074576,3.04183986 8.36144294,2.68073613 C8.32927156,2.3012712 8.31640301,1.92180627 8.27779736,1.54234134 C7.93034648,1.79327783 7.61506697,2.08705713 7.27405037,2.35635482 L7.27405037,2.35635482 Z M6.32821186,1.68923099 C6.41185744,1.78103702 6.48906875,1.87284305 6.57271433,1.96464908 C6.57271433,1.87284305 6.56628006,1.78103702 6.56628006,1.68923099 C6.48906875,1.68923099 6.40542317,1.68923099 6.32821186,1.68923099 Z M5.42741328,3.92317777 C5.36307053,3.97826139 5.28585922,4.03946541 5.2922935,4.13127144 C5.28585922,4.596422 5.33733343,5.07381337 5.22151647,5.52672313 C5.19577936,5.64301077 5.11213378,5.72257599 5.0284882,5.79602082 C4.92553979,5.34923146 4.91910552,4.8902013 4.84189421,4.43729155 C4.56522036,4.65762602 4.30141506,4.89632171 4.04404404,5.13501739 C4.19203238,5.30026825 4.34002072,5.47775991 4.39149492,5.70421479 C4.4751405,6.0163553 4.37862637,6.37745902 4.12125535,6.5855527 C3.80597584,6.84872999 3.38131366,6.8915728 2.98882285,6.94053602 C3.04673133,7.19759291 3.09820553,7.4668906 3.25262815,7.68722508 C3.34914228,7.81575352 3.50356489,7.93816157 3.67085606,7.88919835 C3.85101577,7.84023513 3.96039846,7.66886387 4.02474121,7.50973342 C4.15342672,7.1853521 4.29498079,6.86709119 4.48800905,6.57331189 C4.64243167,6.32849581 4.89336841,6.12652254 5.18934509,6.12040213 C5.28585922,6.12652254 5.41454473,6.09592052 5.47245321,6.19996736 C5.60113872,6.41418144 5.64617865,6.67123833 5.80703554,6.8732116 C6.07727512,7.22819492 6.64992564,7.23431532 6.97163942,6.94053602 C7.0810221,6.84260959 7.0810221,6.68347913 7.06815355,6.54883028 C6.92016521,5.33087026 6.81078253,4.10066943 6.68209702,2.8827094 C6.25100056,3.21933152 5.8456412,3.57431485 5.42741328,3.92317777 L5.42741328,3.92317777 Z M3.15611401,6.00411449 C3.08533698,6.09592052 3.04673133,6.21220817 3.01455995,6.32849581 C3.30410235,6.35909782 3.60007903,6.2978938 3.85101577,6.15100414 C3.92822708,6.10204093 4.01830694,6.0224757 3.99900411,5.91842886 C3.97970128,5.71033519 3.80597584,5.56344554 3.65155323,5.4410375 C3.47782779,5.61240876 3.30410235,5.80214122 3.15611401,6.00411449 L3.15611401,6.00411449 Z" id="path4621"></path>
                            </g>
                            <path d="M5.11247605,0.0673244235 C5.18968736,0.0183612064 5.26046439,0.104046836 5.31193859,0.159130455 C5.46636121,0.348862922 5.63365237,0.538595388 5.72373223,0.771170669 C5.64652092,0.783411473 5.56287534,0.795652277 5.48566403,0.807893082 C5.50496686,1.17511721 5.81381209,1.4260537 5.90389194,1.77491662 C5.9682347,1.98913069 5.97466897,2.22170597 5.92962905,2.43592005 C5.86528629,2.72969935 5.62078382,2.98675624 5.31837287,3.03571946 C4.96448771,3.09692348 4.56556263,3.01123785 4.30175733,2.74806056 C4.12803189,2.5766893 4.06368913,2.33187321 3.98647783,2.11153874 C3.90283225,2.41143844 3.78058101,2.69909734 3.56824992,2.93167262 C3.44599868,3.07244187 3.28514179,3.17036831 3.1242849,3.25605393 C3.16932483,4.07618782 3.25297041,4.89632171 3.18219338,5.71033519 C3.15645628,5.94291047 3.14358773,6.21832857 2.93125664,6.37133862 C2.85404533,6.04695731 2.84117678,5.71033519 2.80257113,5.37371307 C2.73179409,4.69434844 2.68031989,4.0149838 2.60954286,3.33561916 C2.41008032,3.28665595 2.19131495,3.24381313 2.03689233,3.09692348 C1.77952131,2.8643482 1.69587573,2.50324447 1.71517856,2.17274276 C1.72161283,1.91568587 1.80525841,1.66474938 1.86316689,1.41381289 C1.76665276,1.51173933 1.68944145,1.62802697 1.64440153,1.75655541 C1.50928174,2.16662236 1.41920188,2.5950505 1.23260789,2.98675624 C1.16183086,3.13976629 1.02671107,3.26829474 0.859419908,3.30501715 C0.65352309,3.34785997 0.409020619,3.33561916 0.24816373,3.17648871 C0.0744382902,3.00511745 0.0358326369,2.74806056 0.0100955347,2.51548528 C-0.00277301646,2.27678959 -0.0220758431,2.0197327 0.0873068413,1.79939823 C0.151649597,1.66474938 0.286769384,1.59130455 0.402586344,1.52398013 C0.325375037,1.65250858 0.235295179,1.78103702 0.215992352,1.92792667 C0.19025525,2.13602034 0.228860904,2.35023442 0.267466557,2.55220769 C0.293203659,2.67461573 0.318940761,2.80926458 0.415454895,2.89495021 C0.563443232,3.02959906 0.814379979,3.01735825 0.955934041,2.8827094 C1.03314535,2.79702377 1.071751,2.68685654 1.11035665,2.5828097 C1.23904217,2.19110396 1.34199057,1.78715742 1.50284746,1.40769249 C1.64440153,1.08943158 1.89533827,0.777291071 2.2556577,0.709966647 C2.21705205,1.1445152 2.01758951,1.54846174 2.00472096,1.98913069 C1.99828668,2.18498356 2.01758951,2.39919764 2.14627502,2.55220769 C2.24278915,2.68073613 2.40364604,2.72357895 2.55163438,2.76642176 C2.51302873,2.17274276 2.45512025,1.57906375 2.41651459,0.979264341 C2.40364604,0.758929865 2.36504039,0.532474986 2.40364604,0.312140509 C2.43581742,0.159130455 2.60310858,0.104046836 2.73179409,0.0550836192 C2.97629657,0.416187345 3.15645628,0.844615494 3.15002201,1.28528445 C3.06637642,1.26692324 2.98916512,1.24856204 2.90551953,1.23020083 C2.95699374,1.73819421 3.00846794,2.25230799 3.06637642,2.76030136 C3.27870752,2.69297694 3.47173578,2.56444849 3.59398702,2.37471603 C3.84492377,2.0136123 3.88352942,1.54234134 3.76127818,1.12615399 C3.70980398,0.948662331 3.6261584,0.783411473 3.58755274,0.599799409 C3.54894709,0.428428149 3.67119833,0.250936487 3.82562094,0.195852868 C3.89639797,0.165250858 3.92856935,0.250936487 3.96074073,0.299899705 C4.05725486,0.507993377 4.08942624,0.740568658 4.13446617,0.967023537 C4.19237465,1.26692324 4.13446617,1.57906375 4.24384885,1.86672265 C4.33392871,2.11153874 4.4947856,2.33799361 4.72641952,2.46652206 C4.91301351,2.5705689 5.13177888,2.5950505 5.34410997,2.55832809 C5.44705838,2.53996689 5.53070396,2.45428126 5.55644106,2.35023442 C5.60791527,2.15438155 5.53713824,1.95240828 5.45349265,1.77491662 C5.26046439,1.37097008 5.02239619,0.985384743 4.93231633,0.54471579 C4.90014496,0.385585334 4.94518489,0.165250858 5.11247605,0.0673244235 L5.11247605,0.0673244235 Z" id="path4625"></path>
                            <path d="M13.9467364,0.538595388 C14.0689876,0.330501715 14.2620159,0.17137126 14.4807813,0.0673244235 C14.4228728,0.220334477 14.3327929,0.348862922 14.2491473,0.483511769 C14.1848046,0.581438203 14.1848046,0.703846245 14.1783703,0.814013484 C14.3263586,0.807893082 14.474347,0.783411473 14.615901,0.74668906 C14.5772954,0.862976701 14.5386897,0.985384743 14.4293071,1.05882957 C14.3070558,1.1445152 14.1268961,1.19959882 13.9982106,1.09555198 C13.8630908,0.954782733 13.843788,0.709966647 13.9467364,0.538595388 L13.9467364,0.538595388 Z" id="path4627"></path>
                            <g id="g4631" transform="translate(0.125912, 0.091806)">
                                <path d="M5.8423222,0.177491662 C5.90666496,0.0795652277 6.0289162,0.0428428149 6.12543033,-1.73952291e-15 C6.32489287,0.25705689 6.44714411,0.569197398 6.52435541,0.881337907 C6.55652679,1.00374595 6.54365824,1.12615399 6.53078969,1.24856204 C6.46001266,1.22408043 6.38280135,1.19959882 6.31202432,1.17511721 C6.3956699,1.76879622 6.49861831,2.35635482 6.56939534,2.95003383 C6.91041195,2.78478297 7.22569145,2.5828097 7.5795766,2.43592005 C7.68895929,2.38695683 7.80477625,2.36247522 7.92702748,2.35023442 C7.88198756,2.44816085 7.83051335,2.54608729 7.72756494,2.5889301 C7.35437696,2.77866257 6.9747547,2.94391343 6.608001,3.1520071 C6.64017237,3.4457864 6.67234375,3.74568611 6.7109494,4.03946541 C6.87824057,3.82525133 7.02622891,3.55595364 7.31577131,3.48862922 C7.32863986,3.64775967 7.27716565,3.83749214 7.39298261,3.96602058 C7.57314233,4.10678983 7.8176448,4.0211042 7.98493596,3.89257576 C7.97206741,3.66000048 8.03641017,3.4335456 8.0814501,3.20709072 C8.15222713,3.23769273 8.24230699,3.24993353 8.26804409,3.33561916 C8.3452554,3.54983324 8.32595257,3.78852892 8.26804409,4.002743 C8.21013561,4.24755908 8.01067307,4.43117114 7.7919077,4.54133838 C7.65678791,4.60866281 7.48949675,4.64538522 7.34150841,4.5841812 C7.1870858,4.52297718 7.09057166,4.37608753 6.98762325,4.24755908 C6.8975434,4.46789356 6.74955506,4.66986683 6.74312078,4.92080332 C6.71738368,5.4471579 6.51148686,5.94903087 6.19620736,6.36521822 C5.64929394,7.08130527 4.81283812,7.50973342 3.96351374,7.76066991 C3.4745088,7.89531875 2.96620103,8.01772679 2.45145899,7.99324519 C2.17478514,7.98712478 1.89167701,7.92592076 1.65360882,7.77903111 C1.55066041,7.71170669 1.46058055,7.61990066 1.35763214,7.55869663 C1.22894663,7.53421503 1.09382684,7.57093744 0.958707058,7.57093744 C0.63699328,7.58317824 0.315279502,7.59541905 1.8287311e-15,7.54033543 C0.386056533,7.41180698 0.778547342,7.31388055 1.1581696,7.1731113 C1.05522119,6.48150586 1.19034098,5.76541881 1.54422613,5.1656194 C1.64074027,5.00648895 1.7629915,4.8657197 1.89167701,4.74331165 C1.78229433,4.96364613 1.64717454,5.1778602 1.58926606,5.42267629 C1.45414628,5.93679007 1.46058055,6.48762626 1.61500316,6.98949924 C1.87880846,6.90381361 2.13617948,6.78752597 2.38711623,6.67735873 C2.97263531,6.42030184 3.54528583,6.14488374 4.0793307,5.78990042 C4.27879324,5.64913117 4.48469006,5.50224152 4.61980985,5.28802744 C4.6841526,5.18398061 4.67128405,5.06157256 4.67128405,4.94528492 C4.3946102,5.00036854 4.12437063,5.12889699 3.83482823,5.12277659 C3.65466852,5.11053578 3.46164025,5.07381337 3.33295474,4.93304412 C3.20426923,4.79227487 3.19783495,4.5903016 3.22357205,4.41280994 C3.26217771,4.18023466 3.36512612,3.94765938 3.55172011,3.79464932 C3.7640512,3.61715766 4.0793307,3.62327806 4.32383317,3.7334453 C4.56190137,3.84361254 4.69702116,4.07618782 4.81283812,4.2965223 C5.17315755,4.16187345 5.41766002,3.84361254 5.77154517,3.69060249 C5.78441372,3.87421455 5.7651109,4.08842863 5.90666496,4.23531828 C5.99031054,4.33936511 6.1318646,4.33324471 6.24768156,4.34548551 C6.22837874,4.05170621 6.18333881,3.76404731 6.14473316,3.47638841 C6.02248192,2.51548528 5.90023068,1.54846174 5.79728228,0.581438203 C5.790848,0.440668954 5.77154517,0.293779302 5.8423222,0.177491662 Z M3.64179996,4.35772632 C3.60962859,4.42505074 3.68683989,4.46789356 3.7383141,4.49237517 C3.93134236,4.55969959 4.14367346,4.51685677 4.343136,4.48013436 C4.24018759,4.36996712 4.11793636,4.24755908 3.95064519,4.24143868 C3.84126251,4.23531828 3.68683989,4.24143868 3.64179996,4.35772632 Z M5.04447204,4.75555246 C5.05734059,4.95140533 5.06377486,5.14725819 4.99943211,5.33087026 C4.8964837,5.64301077 4.6584155,5.89394725 4.41391303,6.10204093 C3.94421092,6.48762626 3.39086322,6.73856275 2.85681835,7.02010125 C2.61875015,7.1608705 2.36137913,7.27103773 2.10400811,7.38120497 C2.43215616,7.40568658 2.76030421,7.35060296 3.08201799,7.32612135 C3.57745721,7.29551934 4.0535936,7.15475009 4.51042716,6.97113803 C4.98656356,6.77528516 5.4498314,6.52434867 5.82301938,6.15712455 C6.04821902,5.93679007 6.22837874,5.66137197 6.30559004,5.34923146 C6.3441957,5.19622141 6.3441957,5.03709096 6.35062997,4.8779605 C6.15760171,4.8718401 5.95170489,4.8779605 5.77797945,4.78003407 C5.63642539,4.70046884 5.55921408,4.54745879 5.4755685,4.41280994 C5.34044871,4.54133838 5.19246037,4.65762602 5.04447204,4.75555246 L5.04447204,4.75555246 Z" id="path4629"></path>
                            </g>
                            <path d="M10.4014506,0.250936487 C10.4722276,0.17137126 10.6009131,0.183612064 10.6845587,0.238695683 C10.8711527,0.361103726 10.9805354,0.587558605 10.9676668,0.807893082 C10.9612325,0.911939918 10.9161926,1.00374595 10.8840212,1.09555198 C10.8582841,0.954782733 10.8647184,0.807893082 10.8003756,0.679364637 C10.7038615,0.54471579 10.5237018,0.520234181 10.4078848,0.410066943 C10.3628449,0.37334453 10.3435421,0.2876589 10.4014506,0.250936487 L10.4014506,0.250936487 Z" id="path4633"></path>
                            <path d="M13.0395035,0.324381313 C13.0523721,0.238695683 13.1360177,0.146889651 13.2260975,0.195852868 C13.4770343,0.318260911 13.657194,0.550836192 13.7730109,0.801772679 C13.6829311,0.801772679 13.5928512,0.795652277 13.5092057,0.789531875 C13.5542456,0.960903135 13.5992855,1.12615399 13.6700625,1.29140485 C13.7665767,1.52398013 13.9016965,1.74431461 13.9403021,2.0013715 C13.985342,2.28291 13.9338678,2.60117091 13.7344053,2.81538498 C13.3612173,3.23157233 12.6148413,3.1581275 12.2931276,2.71133815 C12.1708763,2.55220769 12.1065336,2.36859563 12.0421908,2.17886316 C11.9392424,2.5828097 11.720477,2.97451544 11.3537233,3.18260911 C10.9805354,3.40906399 10.4850961,3.37846198 10.131211,3.13976629 C9.91244561,2.99899705 9.76445728,2.75418096 9.76445728,2.49712407 C9.73872017,2.11765914 9.88670851,1.76267581 9.93818272,1.39545169 C9.84810286,1.48725772 9.76445728,1.59130455 9.72585162,1.719833 C9.57142901,2.12989994 9.50708625,2.5705689 9.28832089,2.95615423 C9.18537248,3.13976629 9.01164704,3.30501715 8.79288167,3.32337836 C8.58055057,3.33561916 8.34891665,3.25605393 8.22666542,3.07244187 C8.11728273,2.90107061 8.09154563,2.69297694 8.09154563,2.49100367 C8.09797991,2.18498356 8.16875694,1.87284305 8.310311,1.60354536 C8.310311,1.98913069 8.19449404,2.41143844 8.38752231,2.77254217 C8.48403644,2.97451544 8.74140746,3.09080308 8.94087001,2.98063584 C9.12102972,2.8704686 9.2046753,2.66237493 9.26901806,2.47264246 C9.40413785,2.06869592 9.54569191,1.65862898 9.74515445,1.27916405 C9.82880003,1.12615399 9.91887989,0.967023537 10.060434,0.856856299 C10.131211,0.795652277 10.2341594,0.795652277 10.3242393,0.777291071 C10.3435421,1.12003359 10.1505138,1.41993329 10.0861711,1.75043501 C10.0218283,2.03809391 10.0025255,2.38083643 10.2084223,2.61953211 C10.4400562,2.8704686 10.8261127,2.93167262 11.1478265,2.84598699 C11.5917915,2.70521774 11.9135053,2.25842839 11.9328081,1.79327783 C11.9456767,1.51785973 11.9585452,1.21796002 11.8105569,0.973143939 C11.7462141,0.844615494 11.6239629,0.709966647 11.6754371,0.550836192 C11.7076085,0.391705737 11.8234255,0.269297694 11.9585452,0.195852868 C12.0550594,0.348862922 12.138705,0.514113779 12.1580078,0.697725843 C12.209482,1.12003359 12.2159163,1.55458214 12.3639046,1.95852868 C12.4539845,2.19110396 12.5891042,2.42979965 12.8271724,2.53996689 C13.0459378,2.64401372 13.3161774,2.66849533 13.5285085,2.55832809 C13.6636283,2.49100367 13.6957996,2.32575281 13.6636283,2.19110396 C13.5735484,1.75043501 13.2711375,1.40157209 13.1295834,0.979264341 C13.0523721,0.765050267 12.9944636,0.54471579 13.0395035,0.324381313 L13.0395035,0.324381313 Z" id="path4635"></path>
                            <path d="M17.3633367,0.232575281 C17.4984565,0.17137126 17.6914848,0.220334477 17.7558275,0.361103726 C17.7815646,0.428428149 17.7365247,0.489632171 17.6850505,0.526354583 C17.5885364,0.507993377 17.5048908,0.45903016 17.4212452,0.422307747 C17.3118625,0.63040142 17.253954,0.862976701 17.1896113,1.09555198 C17.1445713,0.985384743 17.1059657,0.869097103 17.0351887,0.771170669 C16.9451088,0.648762626 16.8035547,0.587558605 16.7006063,0.477391366 C16.6684349,0.379464932 16.7842519,0.269297694 16.880766,0.299899705 C17.0223201,0.342742519 17.1059657,0.471270964 17.1896113,0.587558605 C17.2282169,0.45903016 17.2475197,0.306020107 17.3633367,0.232575281 L17.3633367,0.232575281 Z" id="path4637"></path>
                            <path d="M0.0551354635,0.74668906 C0.164518148,0.514113779 0.376849241,0.342742519 0.608483161,0.232575281 C0.550574681,0.385585334 0.454060548,0.514113779 0.376849241,0.654883028 C0.312506486,0.752809462 0.318940761,0.875217505 0.312506486,0.985384743 C0.460494824,0.973143939 0.608483161,0.942541929 0.756471499,0.893578711 C0.71143157,1.00986635 0.666391641,1.1383948 0.557008957,1.21796002 C0.441191997,1.30364565 0.267466557,1.35260887 0.145215321,1.26692324 C0.0036612591,1.1445152 -0.0220758431,0.91806032 0.0551354635,0.74668906 L0.0551354635,0.74668906 Z" id="path4639"></path>
                            <g id="g4643" transform="translate(7.647581, 0.279651)">
                                <path d="M0.63699328,0.154897364 C0.675598933,-0.0470759066 0.978009884,-0.0409555045 1.07452402,0.112054549 C1.13886677,0.222221787 1.17103815,0.338509428 1.23538091,0.448676666 C1.29328939,0.558843905 1.36406642,0.675131545 1.32546076,0.80365999 C1.26755228,1.00563326 1.11956395,1.16476372 1.10026112,1.37897779 C1.17103815,1.34837578 1.24181518,1.31165337 1.31259221,1.27493095 C1.29328939,1.38509819 1.31259221,1.53198784 1.19677525,1.59319187 C1.05522119,1.66051629 0.881495751,1.52586744 0.894364302,1.37285739 C0.913667129,1.09743929 1.1839067,0.883225218 1.10026112,0.589445915 C0.830021547,0.950549641 0.456833564,1.27493095 0,1.34225538 C0.199462542,1.18312492 0.424662187,1.07295768 0.604821902,0.88934562 C0.720638862,0.779178381 0.797850169,0.638409132 0.875061476,0.503760285 C0.778547342,0.405833851 0.611256178,0.314027819 0.63699328,0.154897364 L0.63699328,0.154897364 Z M0.823587271,0.136536157 C0.8686272,0.203860581 0.92653568,0.2589442 0.990878436,0.295666613 C0.965141333,0.216101385 0.900798578,0.161017766 0.823587271,0.136536157 Z" id="path4641"></path>
                            </g>
                            <path d="M6.85616473,0.563076996 C6.95267886,0.538595388 7.06849582,0.501872975 7.14570713,0.587558605 C7.37734105,0.801772679 7.48672373,1.1445152 7.40951242,1.45053531 C7.35803822,1.33424767 7.31943257,1.21183962 7.26152409,1.10167238 C7.16500995,0.893578711 6.95267886,0.771170669 6.85616473,0.563076996 Z" id="path4645"></path>
                            <path d="M4.784328,0.691605441 C4.88084213,0.795652277 4.92588206,0.924180722 4.90657923,1.06494997 C4.75215662,1.08943158 4.59773401,1.13227439 4.44331139,1.16899681 C4.35966581,1.19347842 4.26958595,1.13227439 4.25028313,1.04658876 C4.24384885,0.954782733 4.27602023,0.869097103 4.29532305,0.777291071 C4.32749443,0.869097103 4.35966581,0.960903135 4.39183719,1.05882957 C4.43044284,1.04046836 4.47548277,1.02822756 4.51408842,1.00986635 C4.51408842,0.924180722 4.51408842,0.838495092 4.51408842,0.758929865 C4.5462598,0.758929865 4.57843118,0.758929865 4.60416828,0.758929865 C4.61703683,0.83237469 4.62990538,0.911939918 4.64277393,0.985384743 C4.69424814,0.979264341 4.73928807,0.973143939 4.79076227,0.967023537 C4.784328,0.875217505 4.784328,0.783411473 4.784328,0.691605441 L4.784328,0.691605441 Z" id="path4647"></path>
                            <path d="M17.8523417,0.893578711 C17.9745929,0.856856299 18.1097127,0.844615494 18.2383982,0.844615494 C18.1740554,0.91806032 18.1032784,0.985384743 18.0131985,1.02210716 C17.5692335,1.19959882 17.1124,1.32812726 16.6877378,1.55458214 C16.7263434,1.63414737 16.7649491,1.7075922 16.8035547,1.78715742 C16.7006063,1.76879622 16.5783551,1.76879622 16.5011438,1.68311059 C16.4303668,1.61578616 16.4239325,1.48725772 16.5075781,1.4260537 C16.5783551,1.37097008 16.6555664,1.34036807 16.739212,1.30364565 C17.1059657,1.16899681 17.4727194,1.01598675 17.8523417,0.893578711 L17.8523417,0.893578711 Z" id="path4649"></path>
                            <path d="M11.1285237,1.21183962 C11.1799979,1.16899681 11.2379064,1.1383948 11.2893806,1.10779279 C11.2829463,1.27304364 11.3408548,1.41993329 11.4116318,1.56682295 C11.4824089,1.7137126 11.4245004,1.92180627 11.2507749,1.95852868 C11.1027866,2.0074919 10.9676668,1.91568587 10.8647184,1.83000024 C10.7810728,1.90344506 10.690993,2.0013715 10.5687417,1.98301029 C10.3435421,1.97076949 10.2341594,1.7075922 10.2791993,1.51173933 C10.2985021,1.38321088 10.4014506,1.30364565 10.4915304,1.22408043 C10.4786619,1.35872927 10.4271877,1.49337812 10.459359,1.62802697 C10.4850961,1.719833 10.5944788,1.719833 10.6716901,1.75043501 C10.6974272,1.60354536 10.7038615,1.45053531 10.7424672,1.29752525 C10.7553357,1.21796002 10.8518498,1.21183962 10.9033241,1.17511721 C10.9161926,1.30364565 10.9097583,1.4321741 10.948364,1.55458214 C10.9805354,1.64638817 11.089918,1.67699018 11.1671293,1.719833 C11.205735,1.54234134 11.1285237,1.37709048 11.1285237,1.21183962 L11.1285237,1.21183962 Z" id="path4651"></path>
                            <path d="M4.44974567,1.4444149 C4.5462598,1.4444149 4.66207676,1.4260537 4.73928807,1.50561892 C4.95805344,1.719833 5.06743612,2.05645512 4.98379054,2.35635482 C4.90657923,2.15438155 4.84223648,1.93404707 4.67494531,1.78103702 C4.5719969,1.68923099 4.46904849,1.58518415 4.44974567,1.4444149 Z" id="path4653"></path>
                            <path d="M17.7686961,2.21558557 C17.813736,2.16050195 17.8716445,2.12377954 17.929553,2.08093673 C17.929553,2.23394678 17.9810272,2.37471603 18.0453699,2.50936487 C18.1097127,2.64401372 18.1097127,2.8582278 17.9488558,2.91943182 C17.8008674,2.98675624 17.6464448,2.90719101 17.5241936,2.82150538 C17.4276795,2.89495021 17.3118625,2.98675624 17.1767427,2.95003383 C16.9772802,2.90719101 16.8936346,2.67461573 16.925806,2.49100367 C16.9386745,2.35635482 17.0544915,2.27066919 17.1445713,2.18498356 C17.1252685,2.32575281 17.06736,2.46652206 17.1059657,2.60729131 C17.1381371,2.69909734 17.2475197,2.68073613 17.3247311,2.69909734 C17.3504682,2.53996689 17.3375996,2.37471603 17.4019424,2.22782638 C17.4469823,2.19110396 17.5048908,2.16662236 17.5627993,2.14214075 C17.5692335,2.28291 17.5434964,2.43592005 17.6142735,2.56444849 C17.6593134,2.64401372 17.7558275,2.65013412 17.8330388,2.67461573 C17.8266045,2.52160568 17.7815646,2.36859563 17.7686961,2.21558557 L17.7686961,2.21558557 Z" id="path4655"></path>
                            <path d="M23.1155791,2.43592005 C23.0769734,2.33799361 23.1541847,2.24006718 23.2571331,2.24006718 C23.41799,2.24006718 23.5402412,2.37471603 23.6174525,2.50324447 C23.7525723,2.76642176 23.8169151,3.08468268 23.7075324,3.36622117 C23.6496239,3.11528469 23.6560582,2.79702377 23.4244243,2.63177292 C23.3214759,2.5705689 23.1992246,2.53384648 23.1155791,2.43592005 L23.1155791,2.43592005 Z" id="path4657"></path>
                            <path d="M14.2298445,2.98675624 C14.3006215,2.90719101 14.4164385,2.8827094 14.5193869,2.90719101 C14.6480724,3.02959906 14.6223353,3.24993353 14.5193869,3.37846198 C14.3327929,3.62327806 14.0239477,3.7395657 13.7215367,3.7395657 C13.9081307,3.62939847 14.1204618,3.56819444 14.287753,3.42742519 C14.3649643,3.37234158 14.3520957,3.26829474 14.3649643,3.18260911 C14.2748844,3.19484991 14.1848046,3.21321112 14.101159,3.22545192 C14.1397647,3.1458867 14.171936,3.06020107 14.2298445,2.98675624 L14.2298445,2.98675624 Z" id="path4659"></path>
                            <path d="M18.5536777,3.17648871 C18.6115862,3.1642479 18.6887975,3.12752549 18.7274031,3.18872951 C18.6823632,3.33561916 18.5279406,3.39682318 18.4056893,3.45802721 C17.9424215,3.67224128 17.4920222,3.91093696 17.0351887,4.14351224 C17.0158858,4.10066943 16.9901487,4.06394702 16.9708459,4.0211042 C17.2282169,3.83137174 17.511325,3.69060249 17.7879989,3.53759243 C18.0453699,3.40906399 18.2898724,3.26829474 18.5536777,3.17648871 L18.5536777,3.17648871 Z" id="path4661"></path>
                            <g id="g4665" transform="translate(4.475483, 3.311138)">
                                <path d="M5.35975154,0.226454879 C5.37262009,0.134648847 5.43696284,0.0673244235 5.48843705,0 C5.8423222,0.385585334 6.14473316,0.83237469 6.30559004,1.34036807 C6.46001266,1.82387984 6.49861831,2.33187321 6.59513244,2.82762579 C6.64660665,3.07856227 6.69164658,3.34173956 6.85893774,3.54371284 C6.96832043,3.68448208 7.12917732,3.77016771 7.28359993,3.85585334 C7.31577131,3.69672289 7.35437696,3.52535163 7.5023653,3.4335456 C7.95276459,3.13364589 8.47394091,2.95003383 8.98868295,2.78478297 C8.57045504,2.77254217 8.14579285,2.78478297 7.72756494,2.77866257 C7.38654834,2.77254217 7.04553173,2.80314418 6.7109494,2.74194016 C6.72381796,2.61341171 6.72381796,2.47876286 6.80102926,2.36247522 C6.95545188,2.10541833 7.22569145,1.95852868 7.48306247,1.82387984 C7.87555328,1.62190657 8.27447836,1.4444149 8.69914055,1.32812726 C8.58975787,1.21183962 8.4224667,1.08331118 8.46750663,0.893578711 C8.54471794,0.673244235 8.7377462,0.452909758 8.98224868,0.45903016 C9.25248825,0.45903016 9.51629355,0.569197398 9.74792747,0.703846245 C9.88948153,0.795652277 10.063207,0.893578711 10.1146812,1.06494997 C10.1082469,1.18735801 10.0439041,1.29752525 9.97312711,1.39545169 C9.82513877,1.57906375 9.56133348,1.56682295 9.34256811,1.59130455 C9.32969956,1.73819421 9.31039673,1.91568587 9.16240839,1.98301029 C9.11736846,1.86672265 9.07232853,1.75655541 9.02085433,1.64026777 C8.48680946,1.73819421 8.01067307,2.0136123 7.59244516,2.34411402 C8.77635186,2.35023442 9.95382428,2.31963241 11.137731,2.32575281 C11.2149423,2.33187321 11.2921536,2.33799361 11.3693649,2.35023442 C11.3178907,2.66237493 11.0026112,2.81538498 10.7259374,2.8827094 C10.1661554,3.00511745 9.6063734,3.11528469 9.04659143,3.22545192 C8.62836352,3.31113755 8.20370133,3.40906399 7.82407908,3.59879645 C7.68252501,3.66612088 7.56670805,3.78240852 7.47019392,3.91093696 C7.74686777,4.0149838 8.03641017,4.07618782 8.32595257,4.13127144 C8.4224667,4.15575305 8.55758649,4.17411425 8.58332359,4.2904019 C8.62192924,4.44341195 8.62836352,4.65762602 8.48037518,4.75555246 C8.29378119,4.79839527 8.10075292,4.75555246 7.91415893,4.72495045 C7.39941689,4.64538522 6.90397767,4.37608753 6.608001,3.93541857 C6.38280135,3.61715766 6.3184586,3.21933152 6.26055012,2.83986659 C6.11256178,3.04796026 5.95813916,3.25605393 5.77154517,3.42742519 C5.26967168,3.89869616 4.66484978,4.24143868 4.03429077,4.51685677 C3.8155254,4.61478321 3.53885156,4.64538522 3.32008619,4.51073637 C3.16566357,4.41893034 3.10775509,4.22919787 3.04341234,4.07006742 C2.45789326,4.36996712 1.85950564,4.65762602 1.2096438,4.78003407 C0.81071872,4.85347889 0.40535936,4.90856251 -3.6574622e-15,4.90244211 C0.212331093,4.79839527 0.431096462,4.71883004 0.643427556,4.63314441 C1.35119787,4.33936511 2.04609963,4.0088634 2.72813284,3.65388007 C2.81177842,3.60491686 2.91472683,3.56207404 2.97263531,3.48250881 C3.03697806,3.30501715 3.04341234,3.11528469 3.13992647,2.94391343 C3.2364406,2.73581975 3.41016604,2.5766893 3.59676004,2.45428126 C3.4745088,2.72357895 3.34582329,2.99899705 3.30721764,3.29277635 C3.71901127,3.04183986 4.11150208,2.76030136 4.45895296,2.41755884 C4.54903282,2.31963241 4.67771833,2.19722437 4.62624412,2.05033471 C4.56190137,1.84224104 4.45251868,1.65862898 4.37530738,1.45665571 C4.25949042,1.16287641 4.11793636,0.856856299 4.15010773,0.532474986 C4.15654201,0.428428149 4.23375332,0.348862922 4.28522752,0.269297694 C4.56833564,0.452909758 4.74849536,0.752809462 4.90935225,1.04046836 C4.85144377,1.05270917 4.78710101,1.06494997 4.72919253,1.07719078 C4.83857522,1.37709048 5.01873493,1.64638817 5.07020914,1.96464908 C5.10881479,2.20946517 5.05090631,2.47876286 4.87718087,2.66237493 C4.43965013,3.13364589 3.89917099,3.48862922 3.39086322,3.87421455 C3.48094308,3.92317777 3.57745721,3.99050219 3.68683989,3.98438179 C3.89917099,3.97826139 4.1050678,3.90481656 4.29809607,3.82525133 C5.00586638,3.51311082 5.58495118,2.99287664 6.18333881,2.50936487 C6.03535047,1.93404707 5.77154517,1.39545169 5.49487132,0.869097103 C5.39835719,0.685485039 5.32758016,0.452909758 5.35975154,0.226454879 L5.35975154,0.226454879 Z M8.77635186,0.985384743 C8.84712889,1.08331118 8.94364302,1.16287641 9.05945998,1.20571922 C9.23318542,1.24244163 9.40047659,1.1383948 9.5291621,1.02822756 C9.36830521,0.905819516 9.18171122,0.807893082 8.9758144,0.807893082 C8.87930027,0.807893082 8.77635186,0.887458309 8.77635186,0.985384743 L8.77635186,0.985384743 Z" id="path4663"></path>
                            </g>
                            <g id="g4669" transform="translate(0.022964, 3.388421)">
                                <path d="M0.958707058,0.149171466 C0.965141333,0.0757266406 1.02304981,-0.00383858716 1.1066954,0.00228181497 C1.32546076,-0.0221997936 1.47988338,0.155291868 1.61500316,0.296061117 C1.6857802,0.369505943 1.74368868,0.467432377 1.69864875,0.571479213 C1.67291164,0.687766854 1.53779186,0.681646452 1.447712,0.70612806 C1.25468373,0.718368865 1.17747243,0.926462537 1.02948409,1.01826857 C0.733507413,1.22024184 0.366753707,1.37937229 0,1.33040908 C0.0900798578,1.20188063 0.238068196,1.14679701 0.379622258,1.1039542 C0.643427556,1.01826857 0.855758649,0.828536103 1.04878692,0.632683235 C0.997312711,0.473552779 0.932969956,0.314422324 0.958707058,0.149171466 L0.958707058,0.149171466 Z M1.08095829,0.173653075 C1.09382684,0.277699911 1.11956395,0.387867149 1.17747243,0.479673181 C1.21607808,0.393987552 1.25468373,0.30218152 1.28685511,0.21649589 C1.22251236,0.198134683 1.15173532,0.185893879 1.08095829,0.173653075 Z M1.37050069,0.571479213 C1.44127772,0.565358811 1.51205476,0.553118007 1.58283179,0.546997605 C1.56996324,0.455191573 1.55066041,0.363385541 1.51205476,0.277699911 C1.4219749,0.345024334 1.40910635,0.467432377 1.37050069,0.571479213 L1.37050069,0.571479213 Z" id="path4667"></path>
                            </g>
                            <path d="M11.907071,3.58655565 C11.9456767,3.53759243 12.0100194,3.50699042 12.0614937,3.47638841 C12.0614937,3.69060249 12.2159163,3.85585334 12.2352191,4.06394702 C12.2545219,4.27816109 11.9778481,4.38832833 11.8105569,4.2904019 C11.7590827,4.25367948 11.7140428,4.21083667 11.6690028,4.17411425 C11.578923,4.25367948 11.4824089,4.36996712 11.3472891,4.33936511 C11.1413922,4.3026427 11.0320096,4.06394702 11.0706152,3.86809415 C11.089918,3.7334453 11.1993007,3.64775967 11.2958149,3.56819444 C11.276512,3.69672289 11.2314721,3.81913093 11.2443407,3.95377978 C11.2572092,4.05170621 11.3665919,4.08230822 11.4438032,4.12515104 C11.4952774,3.97826139 11.508146,3.81913093 11.5338831,3.66000048 C11.5467516,3.57431485 11.6497,3.56207404 11.7076085,3.51923123 C11.7140428,3.64775967 11.7076085,3.78240852 11.7462141,3.90481656 C11.7848198,3.99050219 11.8748997,4.03334501 11.9456767,4.08230822 C12.022888,3.91705737 11.9135053,3.75180651 11.907071,3.58655565 L11.907071,3.58655565 Z" id="path4671"></path>
                            <path d="M1.63796725,4.36996712 C1.74734993,4.32100391 1.86316689,4.25979988 1.98541813,4.24755908 C2.10123509,4.24143868 2.15914357,4.41893034 2.06906371,4.49237517 C1.93394393,4.596422 1.77308704,4.63926482 1.61866442,4.70658924 C1.25834499,4.8779605 0.898025561,5.04321136 0.544140406,5.23294382 C0.466929099,5.28190704 0.370414966,5.26966624 0.286769384,5.25742543 C0.338243588,5.1533786 0.409020619,5.05545216 0.511969028,4.99424814 C0.88515701,4.76779326 1.25834499,4.55969959 1.63796725,4.36996712 L1.63796725,4.36996712 Z" id="path4673"></path>
                            <path d="M15.1692487,4.55969959 C15.1949858,4.43729155 15.3365399,4.41893034 15.4394883,4.38220793 C15.4652254,4.55969959 15.4845282,4.74331165 15.5939109,4.8902013 C15.5360025,4.89632171 15.478094,4.90244211 15.4266198,4.90856251 C15.3494085,5.02485015 15.2657629,5.1533786 15.1370774,5.21458262 C14.9247463,5.31862945 14.6866781,5.31862945 14.4550442,5.30638865 C14.6995466,5.23906423 15.0019576,5.22070302 15.1628145,5.00036854 C15.2721972,4.8718401 15.1563802,4.70658924 15.1692487,4.55969959 L15.1692487,4.55969959 Z" id="path4675"></path>
                            <g id="g4679" transform="translate(19.049117, 4.645946)">
                                <path d="M0.978009884,0.0912451618 C1.01018126,-0.00668127229 1.12599822,-0.00668127229 1.2096438,0.00555953198 C1.38980352,0.0361615426 1.51848903,0.189171596 1.63430599,0.317700041 C1.71795157,0.397265269 1.74368868,0.538034518 1.66647737,0.635960952 C1.55066041,0.727766984 1.36406642,0.672683365 1.26111801,0.795091407 C0.952272782,1.15007473 0.476136391,1.37652961 0,1.32756639 C0.0900798578,1.19903795 0.238068196,1.14395433 0.386056533,1.10111151 C0.649861831,1.01542588 0.855758649,0.819573016 1.04878692,0.62984055 C0.997312711,0.45846929 0.920101404,0.274857226 0.978009884,0.0912451618 L0.978009884,0.0912451618 Z M1.10026112,0.164689987 C1.11312967,0.274857226 1.13886677,0.385024464 1.17747243,0.489071301 C1.22251236,0.403385671 1.26755228,0.317700041 1.29328939,0.225894009 C1.22894663,0.2014124 1.1581696,0.183051194 1.10026112,0.164689987 Z M1.4734491,0.299338834 C1.43484345,0.385024464 1.40910635,0.476830496 1.38336924,0.568636528 C1.45414628,0.562516126 1.52492331,0.550275322 1.59570034,0.54415492 C1.57639751,0.45846929 1.56352896,0.37278366 1.52492331,0.293218432 C1.51205476,0.293218432 1.48631765,0.299338834 1.4734491,0.299338834 Z" id="path4677"></path>
                            </g>
                            <path d="M7.85347744,4.92692372 C7.97572867,4.81063608 8.19449404,4.8718401 8.27170535,5.01260935 C8.310311,5.09217457 8.22666542,5.1533786 8.19449404,5.21458262 C8.13015129,5.1778602 8.06580853,5.12889699 7.9950315,5.11053578 C7.93068874,5.09217457 7.91138592,5.1656194 7.89208309,5.20846222 C7.81487178,5.39207428 7.77626613,5.58792715 7.71835765,5.77765961 C7.67331772,5.66137197 7.64114634,5.54508433 7.57036931,5.4410375 C7.49315801,5.33087026 7.36447249,5.26966624 7.26795836,5.1778602 C7.1778785,5.10441538 7.27439264,4.94528492 7.37734105,4.96364613 C7.52532938,4.98200734 7.61540924,5.11665618 7.71835765,5.21458262 C7.7569633,5.11665618 7.78270041,5.00648895 7.85347744,4.92692372 L7.85347744,4.92692372 Z" id="path4681"></path>
                            <path d="M0.119478219,5.99187369 C0.241729455,5.78378002 0.434757721,5.62464956 0.65352309,5.52060272 C0.59561461,5.67361278 0.505534752,5.80826162 0.42188917,5.94291047 C0.357546415,6.04083691 0.357546415,6.15712455 0.351112139,6.26729178 C0.499100477,6.26117138 0.647088815,6.23668977 0.795077152,6.20608776 C0.756471499,6.3223754 0.71143157,6.45090385 0.602048886,6.51822827 C0.47979765,6.5977935 0.30607221,6.65899752 0.177386699,6.55495068 C0.0358326369,6.40194063 0.0229640858,6.16324495 0.119478219,5.99187369 L0.119478219,5.99187369 Z" id="path4683"></path>
                            <path d="M10.388582,6.93441562 C10.4979647,6.91605441 10.6266502,6.86709119 10.7231643,6.94665642 C10.8196785,7.00786044 10.8518498,7.1669909 10.76177,7.25267653 C10.6266502,7.32612135 10.4529248,7.28327854 10.3371078,7.38732537 C10.3564106,7.54645583 10.4786619,7.67498428 10.504399,7.82799433 C10.5108332,7.92592076 10.4336219,8.00548599 10.388582,8.08505122 C10.3564106,7.93204116 10.3306735,7.76679031 10.2470279,7.63214146 C10.1955537,7.53421503 10.1183424,7.43628859 10.1440795,7.32000095 C10.1698166,7.19147251 10.3049364,7.13026849 10.4014506,7.06906446 C10.3950163,7.03234205 10.388582,6.98337883 10.388582,6.93441562 Z" id="path4685"></path>
                            <path d="M15.3236714,7.12414808 C15.3751456,6.99561964 15.4973968,6.93441562 15.6067795,6.86709119 C15.5617396,6.97113803 15.4845282,7.07518487 15.4716597,7.19147251 C15.5231339,7.28327854 15.6067795,7.35060296 15.6518194,7.4485294 C15.664688,7.60765985 15.433054,7.63214146 15.3494085,7.53421503 C15.2528943,7.42404779 15.2657629,7.25267653 15.3236714,7.12414808 Z" id="path4687"></path>
                            <path d="M14.1333304,6.94665642 C14.3134901,6.8854524 14.5065184,6.94665642 14.6673753,7.03846245 C14.5515583,7.27715814 14.2813187,7.33836216 14.0818562,7.48525181 C14.0882905,7.50973342 14.0947247,7.55869663 14.0947247,7.58317824 C14.2362788,7.58929865 14.3842671,7.60765985 14.5065184,7.53421503 C14.6673753,7.4485294 14.8346664,7.36896417 15.0148261,7.33224176 C14.8732721,7.4546498 14.7381523,7.57705784 14.5965982,7.69334548 C14.4293071,7.82799433 14.1976731,7.82799433 13.9982106,7.77291071 C13.9016965,7.7423087 13.7794452,7.65662307 13.8116166,7.53421503 C13.8630908,7.38120497 14.0175134,7.30163975 14.1397647,7.20983371 C14.0496848,7.20371331 13.9660392,7.19759291 13.8759594,7.19147251 C13.9467364,7.09354607 14.0110791,6.97113803 14.1333304,6.94665642 L14.1333304,6.94665642 Z" id="path4689"></path>
                            <path d="M18.7981802,7.38120497 C18.7338374,7.30776015 18.7917459,7.1853521 18.8818257,7.1731113 C19.0555512,7.14250929 19.2035395,7.28327854 19.2807508,7.42404779 C19.3965678,7.61990066 19.3901335,7.86471674 19.2936194,8.06669001 C19.261448,7.92592076 19.261448,7.77903111 19.190671,7.65050267 C19.0941568,7.52197422 18.9139971,7.49749261 18.7981802,7.38120497 L18.7981802,7.38120497 Z" id="path4691"></path>
                            <path d="M21.712907,7.473011 C21.9509752,7.38732537 22.1890434,7.27715814 22.4464144,7.30163975 C22.3885059,7.39344578 22.3177289,7.47913141 22.2083462,7.51585382 C21.8094211,7.66274347 21.4040618,7.79739232 21.0115709,7.96264318 C20.8893197,8.01772679 20.7606342,8.06056961 20.6255144,8.09117162 C20.6126459,8.05444921 20.593343,8.01772679 20.5804745,7.98100438 C20.9407939,7.77291071 21.3268505,7.62602106 21.712907,7.473011 L21.712907,7.473011 Z" id="path4693"></path>
                        </g>
                        <path d="M20.9352628,15.3348797 L18.9535035,15.3348797 L18.9535035,15.1469931 C19.0430022,15.0696278 19.164465,14.9646322 19.164465,14.9038457 C19.164465,14.7988502 18.9151469,14.5833323 18.8576116,14.5833323 C18.7936842,14.5833323 18.550759,14.8043762 18.550759,14.9038457 C18.550759,14.9701583 18.6594363,15.0641017 18.748935,15.1414671 L18.7553282,15.1469938 L18.7553282,15.3404064 L3.12500007,15.3404064 C3.68117145,15.8930151 4.50583882,15.8874891 6.16156682,15.9040669 C7.63829678,15.9261718 7.63190425,15.9261718 18.748935,15.9040669 L18.748935,16.1030055 C18.6594363,16.1803709 18.550759,16.2853664 18.550759,16.3461536 C18.550759,16.4511488 18.7872916,16.6666663 18.8576116,16.6666663 C18.9023615,16.6666663 19.0493951,16.545093 19.1261083,16.4400971 L19.810135,16.4400971 C19.8548842,16.5174624 19.957169,16.5616711 20.0786317,16.5616711 C20.2000941,16.5616711 20.3023782,16.5119364 20.3471277,16.4400971 L21.1654022,16.4400971 C21.267687,16.5561451 21.4083277,16.5616711 21.4914342,16.5616711 C21.8046797,16.5506191 21.8750001,16.3903623 21.8750001,15.8377536 C21.8686068,15.3735631 21.5553617,15.3238283 20.9352628,15.3348804 L20.9352628,15.3348797 Z M21.0759035,16.2687876 L20.3471277,16.2687876 C20.3023782,16.1914223 20.2000941,16.1416875 20.0786317,16.1416875 C19.957169,16.1416875 19.8548842,16.1914223 19.810135,16.2687876 L19.1388934,16.2687876 C19.1005368,16.2135271 19.0238242,16.1416875 18.9598964,16.0974791 L18.9598964,15.8985405 L21.050333,15.8985405 L21.0822961,15.8985405 C21.0439394,16.0422183 21.0375469,16.1693184 21.0759028,16.2687876 L21.0759035,16.2687876 Z" id="path4697"></path>
                    </g>
                </g>
            </g>
        </g>
    </g>
</svg>